<?xml version="1.0" encoding="UTF-8"?>
<svg id="Layer_2" xmlns="http://www.w3.org/2000/svg" xmlns:xlink="http://www.w3.org/1999/xlink" viewBox="0 0 1320 20"><defs><style>.cls-1{clip-path:url(#clippath);}.cls-2{fill:none;}.cls-2,.cls-3{stroke-width:0px;}.cls-3{fill:#fffbeb;}</style><clipPath id="clippath"><rect class="cls-2" width="1319.9" height="22.13"/></clipPath></defs><g id="Layer_1-2"><g class="cls-1"><g id="Group_124"><path id="Path_3387" class="cls-3" d="M67.75,10.77c.04.1.06.2.09.27-.2-1.08-.25-1.27-.09-.27"/><path id="Path_3388" class="cls-3" d="M67.84,11.04l.04.23s0-.08-.04-.23"/><path id="Path_3389" class="cls-3" d="M710.01,10.77c.04.1.06.2.09.27-.2-1.08-.25-1.27-.09-.27"/><path id="Path_3390" class="cls-3" d="M710.1,11.04l.04.23s0-.08-.04-.23"/><path id="Path_3391" class="cls-3" d="M1313.75,8.57c-3.09-1.76-4.01-2.17-5.88-2.46-.59,1.61-1.37,2.19-3-.39-3.01,1.27-5.23.66-8.33,1.53-2.5.62-4.42.58-7.01.98-.45.92-1.56,1.31-2.49.86-.1-.05-.19-.1-.27-.16-.2,3.8-.79,4.88-2.53.07-.22,2.19-1.27-.78-1.55,1.05-1.26-2.83-1.69-.8-2.27.12-1.34-3.54-1.77,1.59-2.75.08-.81,4.9.94,6.77-1.75,4.25-1.06.62-2.01,5.75-4.21.41-1.82-2.45-2.33,1.29-3.88.28-2.88-.51-5.2,1.57-8.15.67-1.68,2.96-5.32-.37-7.09-.4-1.03.84-1.98,1.16-3.39-2.94-.99-2.66-.25,1.45-1.81-1.78-1.12-2.27-1.93-.03-2.79-.27-.05,1.99-.12,3.62-1.24-.35-1.36.11-2.93.55-4.44.03-2.77,2.39-5.35,4.82-9.31-.46-2.97-4.88-3.32-2.62-4.48-1.93-.81-1.87-.99,0-1.87-1.42-1.86.52-6.68,1.6-9.43.01-1.16,3.11-2.81,1.74-4.23,3.48-.87,1.35-1.94,1.36-3.28.32-3.08-3.87-4.4,5.62-7.11-1.32-1.29-3.72-.54.1-1.9-1.88-.83,1.2-2.25.44-3.58-.82-1.73-2.63-2.11,2.52-4.19-1.75-.99.78-3.29-2.91-3.98.06-1.89,2.38-4.93,1.96-7.32-.73-1.08-.9-1.95-2.03-2.55-3.31-1.29-1.41-1.82,1.59-3.74-.4-2.63,3.44-6.54,2.78-10.21.65-3.1-2.21-3.25,2-4.73,3.17-1.31-1.38.07,7.24-2.49,3.44-.7.95-1.76.85-2.63.93-2.37-4.71-4.29-4.48-4.78.1-1.16-1.48-.73.49-2.21-.68-2.72-2.17-4.49,1.25-7.12-.14-2.33.28-4.87-.58-7.11.11-1.85,1-4.02.2-5.85,1.28-.29,4.84-1.02,3.14-2.59.67-3.63-2.51-4.65-1.32-7.48-.61-1,2.59-1.22,5.78-3.39,1.53-1.7-2.9-2.34.28-3.5.38-2.08-.91-3.01,1.81-5.33-1.33-.84,2.7-2.64.49-4.12-.57-1.75-.87-3.4-2.82-4.79-1.32-2.02-1.83-2.91,1.51-5.08-.64-2.07-1.87-3.02,2.61-5.06-.35-1.38-.73-2.19-1.67-3.48-.91-2.4-2.75-4.06.89-5.63,2.06-1.53,2.94-3.38-.59-5.25,1.1-1.87-4.03-1.72.39-2.75.59-1.59,5.11-5.57,1.31-8.17.09-2.97-1.27-5.18.39-8.26-1.27-2.96-1.42-4.86,2.77-7.83,1.24-1.98,3.6-5.34-.56-7.87,0-2.78-.23-5.35,1.71-8.18-.93-1.46-.8-1.84-.39-3.32-.95-2.04-2.22-2.91-2.94-4.19-1.69-1.55-1.25-2.05,1.71-3.76.35-2.09-.43-4.18-.14-5.88-.69-1.32-.03-2.89-4.07-4.17-1.85-.89-.4-1.33,2.4-2.58.06-1.02,1.42-3.1-1.52-4.1-.08-1.51-1.06-1.56,1.81-2.58,2.19-1.71,4.15-6.45-.61-8.88,1.06-2.47.61-5.06.61-7.53,0-1.32.59-4.2-3.03-5.06.02-1.18.03-1.01,2.14-1.93,1.91-1.14,2.26-2.61.98-4.45,1.25-2.78.25-5.69-.15-8.51-.03-2.54,1.71-4.95,4.13-8.51.02-1.04,1.69-2.13,2.52-3.28-1.03-.78-1.56.35-1.57-1.02-3.31-1.79-1.81-6.19.95-8.33-.68-1.05.46-1.46,2.44-2.98.59-.61,3.77-2.98-1.02-4.1,0-1.38-.16-2.31-1.82-2.91,1.97-.5,1.08-1.15.41-1.96.5-1.65,1.89-2.77,2.05-5.02,1.99-.74,1.42-1.55,2.49-2.98-.03-2.83-2.48-5.49-2.11-7.28.9-.2,5.06-1.41,2.94-2.72,2.25-1.34-.32-3.58-2.34-4.4.09-1.65-.65-3.01,0-4.21-2.12-.79-.46-.89-.23-2.7-2.96-1.45,2.16-3.96-1.08-5.47,1.22-1.81,2.99-4.3,2.04-6.98-.02-3.47-.66-6.47.17-9.63.96-1.41,4.24-4.03.32-6.14,1.6-2.24-1.82-3.44-3.82-4.67-1.5-1.61-1.4-3.12-1.69-4.42-.56-1.82,1.56-4.76-1.87-6.54-1.5-1.17-1.48-2.47-1.87-3.12-1.24-.15,2.95-1.07-1.41-1.93-1.52-2.91-4.57-5.36-1.48-7.25.61-1.36-1.61-3.08-3.08-3.52-.1-1.33-1.83-1.71-2.69-2.48-1.86-1.2,1.7-4.92-3.9-6.03.06-1.38-1.58-2.67,1.52-3.72.58-.27,1.27-.65-2.3-.62,1.82-.87.9-3.11-.03-4.13,1.18-1.8.41-3.04.55-4.79,2.43-3.05.87-5.28-2.3-7.8-.33-1.98,1.23-4.57-.74-6.64.02-1.41.26-3.6-2.91-4.49.04-1.52,1.03-3.05-1.32-4.6-1.91-1.17-2.71-1.4-.46-2.29-.74-.08,1.09-1.69-2.79-1.53.13-1.77-5.34-1.03-.43-1.26-1.3-.04.37.71,1.53-1.34-1.96-.77,1.18-2.47,0-3.51.05-1.77.77-4.07-1.43-5.72,0-.92,2.8-3.42,1.6-5.11.07-1.38,1.55-2.3,1.82-3.54,3.6-1.77.94-4.02-1.59-5.58.76-4.41-4.25-7.19.14-10.64-.9-1.1,2.83-3.22-1.43-4.72.22-.93,4.26-3.43-.37-5.01.05-2.71-.19-4.86,2.84-8.05-.01-1.62-.06-3.24.17-4.78.68-1.03.17-1.25,4.46-3.09.07-1.33,2.65-4.36,5.3-4.39,4.1-1.58-2.81-6.84-2.38-7.42.27-1.09.11-2.19,2.67-3.49-1.2-.06-.33-.12-.62-.16-.88-.01,0-.03-.04-.07-.12-.02-.14-.04-.26-.06-.38-.26-.76-.87-2.14-1.49-2.28-2.11-1.26-2.3,1.56-4.18,2.34-1.57.8-3.35.43-5.14-.03-3.22-.27-5.51,4.69-9.5,0-2.22,4.16-5.71,1.34-8.8.66-1.73-2.8-2.48-1.82-3.26-.28v-3.1c-1.99.7-4.1-.16-6.14.5-3.09-1.76-4.01-2.17-5.88-2.46-.59,1.61-1.37,2.19-3-.39-3.01,1.27-5.23.66-8.33,1.53-2.5.62-4.42.58-7,.98-.45.92-1.56,1.31-2.49.86-.1-.05-.19-.1-.27-.16-.2,3.8-.79,4.88-2.53.07-.22,2.19-1.27-.78-1.55,1.05-1.26-2.83-1.69-.8-2.27.12-1.34-3.54-1.77,1.59-2.75.08-.81,4.9.94,6.77-1.75,4.25-1.07.62-2.01,5.75-4.21.41-1.82-2.45-2.33,1.29-3.88.28-2.88-.51-5.2,1.57-8.15.67-1.68,2.96-5.32-.37-7.09-.4-1.03.84-1.98,1.16-3.39-2.94-.99-2.66-.25,1.45-1.81-1.78-1.12-2.27-1.93-.03-2.79-.27-.05,1.99-.12,3.62-1.24-.35-1.36.11-2.93.55-4.43.03-2.77,2.39-5.35,4.82-9.31-.46-2.97-4.88-3.32-2.62-4.48-1.93-.81-1.87-.99,0-1.87-1.42-1.86.52-6.68,1.6-9.43.01-1.16,3.11-2.81,1.74-4.23,3.48-.87,1.35-1.94,1.36-3.28.32-3.08-3.87-4.4,5.62-7.11-1.32-1.29-3.72-.54.1-1.91-1.88-.83,1.2-2.25.44-3.59-.82-1.73-2.63-2.11,2.52-4.18-1.75-.99.78-3.29-2.91-3.98.06-1.89,2.38-4.93,1.96-7.32-.73-1.08-.91-1.95-2.04-2.54-3.32-1.29-1.41-1.82,1.59-3.74-.4-2.63,3.44-6.53,2.78-10.21.65-3.1-2.21-3.25,2-4.73,3.17-1.31-1.38.07,7.24-2.49,3.44-.7.95-1.76.85-2.63.93-2.37-4.71-4.29-4.48-4.78.1-1.17-1.48-.73.49-2.21-.68-2.72-2.17-4.49,1.25-7.12-.14-2.33.28-4.87-.58-7.11.11-1.85,1-4.02.2-5.85,1.28-.29,4.84-1.02,3.14-2.59.67-3.63-2.51-4.64-1.32-7.48-.61-1,2.59-1.22,5.78-3.39,1.53-1.7-2.9-2.34.28-3.5.38-2.08-.91-3.01,1.81-5.33-1.33-.84,2.7-2.64.49-4.12-.57-1.75-.87-3.4-2.82-4.78-1.32-2.02-1.83-2.91,1.51-5.08-.64-2.07-1.87-3.02,2.61-5.06-.35-1.38-.73-2.19-1.67-3.48-.91-2.4-2.75-4.06.89-5.63,2.06-1.53,2.94-3.38-.59-5.26,1.1-1.87-4.03-1.72.39-2.75.59-1.58,5.11-5.57,1.31-8.17.09-2.97-1.27-5.18.39-8.26-1.27-2.96-1.42-4.86,2.77-7.83,1.24-1.98,3.6-5.34-.56-7.87,0-2.77-.23-5.35,1.71-8.18-.93-1.46-.8-1.84-.39-3.32-.95-2.04-2.22-2.91-2.94-4.19-1.69-1.55-1.25-2.05,1.71-3.76.35-2.09-.43-4.18-.14-5.88-.69-1.32-.03-2.89-4.07-4.17-1.85-.89-.4-1.33,2.4-2.58.06-1.02,1.42-3.1-1.52-4.1-.08-1.51-1.06-1.56,1.81-2.58,2.19-1.71,4.15-6.44-.61-8.88,1.06-2.47.61-5.05.61-7.53,0-1.32.59-4.2-3.03-5.06.02-1.18.03-1.01,2.14-1.93,1.91-1.14,2.26-2.61.98-4.45,1.25-2.78.25-5.69-.15-8.51-.03-2.54,1.71-4.95,4.13-8.51.02-1.04,1.69-2.13,2.52-3.28-1.03-.78-1.56.35-1.57-1.02-3.31-1.79-1.81-6.19.95-8.33-.68-1.05.46-1.46,2.44-2.98.59-.61,3.77-2.98-1.02-4.1,0-1.39-.17-2.32-1.82-2.92,1.96-.5,1.08-1.15.41-1.96.5-1.65,1.89-2.77,2.05-5.02,1.99-.74,1.42-1.55,2.49-2.98-.03-2.83-2.48-5.49-2.11-7.28.9-.2,5.06-1.41,2.94-2.72,2.25-1.34-.32-3.58-2.34-4.4.09-1.65-.65-3.01,0-4.21-2.12-.79-.46-.89-.23-2.69-2.96-1.45,2.16-3.96-1.08-5.46,1.22-1.81,2.99-4.3,2.04-6.99-.02-3.47-.66-6.47.17-9.63.96-1.41,4.24-4.04.32-6.14,1.6-2.24-1.82-3.44-3.82-4.67-1.5-1.61-1.4-3.12-1.69-4.43-.56-1.81,1.56-4.76-1.87-6.54-1.5-1.17-1.48-2.47-1.87-3.12-1.24-.15,2.95-1.07-1.41-1.93-1.52-2.91-4.57-5.36-1.48-7.25.61-1.36-1.61-3.08-3.08-3.52-.1-1.33-1.83-1.71-2.69-2.48-1.86-1.2,1.7-4.92-3.9-6.03.06-1.38-1.58-2.67,1.52-3.72.58-.27,1.27-.65-2.3-.62,1.82-.87.9-3.12-.03-4.13,1.18-1.8.41-3.04.55-4.79,2.43-3.05.87-5.28-2.3-7.8-.33-1.98,1.23-4.57-.74-6.64.02-1.41.26-3.6-2.91-4.49.04-1.52,1.03-3.05-1.32-4.6-1.91-1.17-2.71-1.4-.46-2.29-.74-.08,1.09-1.69-2.79-1.53.13-1.77-5.34-1.03-.43-1.26-1.3-.04.37.71,1.53-1.34-1.96-.77,1.18-2.47,0-3.51.05-1.77.77-4.06-1.43-5.72,0-.92,2.8-3.42,1.6-5.11.07-1.38,1.55-2.3,1.82-3.54,3.6-1.77.94-4.02-1.59-5.58.76-4.41-4.25-7.19.14-10.64-.9-1.1,2.83-3.22-1.43-4.72.22-.93,4.26-3.43-.37-5.01.05-2.71-.19-4.86,2.84-8.05-.01-1.62-.06-3.24.17-4.78.68-1.03.17-1.25,4.46-3.09.07-1.33,2.65-4.36,5.3-4.39,4.1-1.58-2.81-6.84-2.38-7.42.27-1.09.11-2.19,2.67-3.49-1.2-.06-.33-.12-.62-.16-.88-.01,0-.03-.04-.07-.12-.02-.14-.04-.26-.06-.38-.26-.76-.87-2.14-1.49-2.28-2.11-1.26-2.3,1.56-4.18,2.34-1.57.8-3.35.43-5.14-.03-3.22-.27-5.51,4.69-9.5,0-2.21,4.16-5.71,1.34-8.8.66-2.5-4.04-2.96-.21-4.41,1.84-2.51-2.1-4.11.27-6.19.61-1.75,2.08-4.63-1.94-6.38,0-.37,1.25-2.3-.35-2.64.62.1,1.13.2,1.99.28,2.55.21,1.07.15,1.02,0,0-.06-.28-.13-.64-.23-1.08-.01,7.6-5.15,5.63-8.1.54-1.75,1.11-7.94-4.54-9.09-1.31.04,1.85.37,4.52-.67,3.27-.19.94-.65.98-1.2.71v2.92h1319.9v-14.06c-1.98.7-4.1-.16-6.14.5"/></g></g></g></svg>