<?xml version="1.0" encoding="UTF-8"?><svg id="Layer_2" xmlns="http://www.w3.org/2000/svg" viewBox="0 0 255.67 272.87"><defs><style>.cls-1{fill:#231f20;stroke-width:0px;}</style></defs><g id="Layer_1-2"><path class="cls-1" d="M178.18,77.85c-.92-1.68-2.81-4.44-5.69-5.31-4.1-1.25-5.7-3.64.82-3.79-8.23-6.35-17.82-11.02-28.26-13.5-.51,1.71-.76,3.66-.44,5.83.89,5.96,5.5,7.6,9.6,7.31.41-.03.63.48.33.76-2.99,2.82-4.91,7.33-1.12,12.02,3,3.71,7.08,4.83,9.97,5.11,1.11.11,1.9-1.06,1.4-2.05-1.4-2.8-1.02-7.07,1.92-3.91,3.01,3.24,8.39.94,10.84-.37.76-.41,1.03-1.35.62-2.11Z"/><path class="cls-1" d="M129.62,53.27c-.1,0-.21,0-.31,0-.15,0-.3,0-.45-.01-.34,0-.68-.03-1.03-.03-.97,0-1.93.04-2.9.07-.11,0-.22,0-.34,0-.22,0-.45,0-.67.02-2.31,7.35-7.69,18.89-19.26,22.3-3.81,1.12-6.85.68-8.59-1.25-1.31-1.46-1.69-3.67-.93-5.5.74-1.78,2.4-2.83,4.66-2.95,2.95-.12,3.03.87,3.12,1.76.05.55-.1.72-.15.78-.33.38-1.19.59-1.65.61-1.29.04-2.31,1.11-2.27,2.4s1.15,2.27,2.4,2.27c.32-.01,3.22-.15,5.02-2.18.71-.8,1.51-2.2,1.31-4.33-.18-1.91-1.34-6.36-8.01-5.99-4.04.21-7.31,2.38-8.74,5.82-1.46,3.51-.76,7.6,1.77,10.41,2.01,2.24,4.9,3.39,8.29,3.39,1.6,0,3.32-.26,5.1-.78,5.63-1.66,9.98-4.85,13.34-8.59-2.08,3.68-4.5,6.53-6.77,8.66.64.3,1.22.73,1.75,1.21,1.12-2.79,3.88-4.72,7.04-4.59.06,0,.11.02.17.02,1.63-2.38,3.13-5.13,4.38-8.29.52,4.03,1.32,8.3,2.51,12.4,1.01-.46,2.13-.72,3.31-.66.49.02.96.09,1.42.21-.96-3.16-1.65-6.41-2.14-9.42-1.15-7.11-1.37-13.89-1.39-17.8Z"/><path class="cls-1" d="M135.61,53.63c.37,1.8.78,3.67,1.24,5.58h-.02c.2,8.84-1.3,15.87-3.4,21.38,1.64.48,3.02,1.52,3.96,2.89.92-2.26,1.76-4.74,2.42-7.5l1.64,9.12c.89-.33,1.84-.48,2.82-.43.67.03,1.31.18,1.92.38l-.26-1.43c.33.58.67,1.14,1.01,1.7.27.12.52.28.78.44.99-.44,2.07-.68,3.22-.63.55.02,1.08.12,1.59.26-6.04-8.28-9.75-20.61-11.98-31.05-1.64-.28-3.29-.53-4.96-.7Z"/><path class="cls-1" d="M157.72,90.87c.04.16.08.32.1.49.04.27.04.55.05.82,0,.18.04.34.03.52-.05,1.19-.42,2.31-1,3.32.52.33,1.04.64,1.58.93.09-1.21.48-2.34,1.12-3.34.11-.17.2-.34.32-.49.12-.15.26-.29.39-.44.01-.01.02-.02.03-.04-.11-.06-.21-.13-.32-.19-.8-.47-1.57-1-2.31-1.59Z"/><path class="cls-1" d="M43.2,147.66c-.04-.23-.08-.42-.11-.65-.09-.5-.09-.94-.21-1.39-.19-.88-.39-1.76-.69-2.57-.3-1.06-.74-1.97-1.41-2.84-.78-1.09-1.79-2.07-2.79-3-.61-.53-1.9-1.13-2.74-1.18-.04,0-.05-.03-.09-.06-.17-.09-.38-.17-.6-.25-.44-.04-1.03-.02-1.37-.55,0-.04-.09-.06-.17-.09-1.18-.15-2.39-.06-3.49.46-1.1.47-1.9,1.37-2.64,2.33-.27.29-.53.61-.78.97-.28-.23-.47-.4-.69-.51-.72-.51-1.48-.97-2.37-1.09-2.02-.2-3.73.42-5.14,1.86-1.54,1.58-2.32,3.46-2.53,5.64-.17,2.21.02,4.4.59,6.51.09.3.15.61.16.88.11,1.05.17,2.11.28,3.16,0,.28.09.5.36.49.36.02.79.22,1.19-.01.07-.05.19-.03.31-.06.99-.01,1.98-.03,2.92-.28.38-.1.6-.18.73-.56.08-.21.16-.42.2-.67.04-.2.1-.33.25-.36.76-.17,1.45-.3,2.14-.42.88-.16,1.79-.2,2.68-.31,1.08-.15,2.15-.38,3.2-.52.62-.11,1.24-.18,1.94-.26,1.58-.28,3.16-.51,4.77-.8.42-.07.51-.05.7.39.1.14.11.38.19.6.07.15.11.38.18.36.41.05.81.33,1.2.07.39-.27.73-.37,1.2-.37.87,0,1.65-.33,2.44-.59.05-.17.08-.41.19-.51.32-.21.26-.52.25-.84,0-.2-.03-.39.02-.56.09-.85-.05-1.62-.27-2.41ZM21.1,148.66c-.08-.22-.15-.41-.16-.69.01-1.07-.1-2.16.31-3.19.17-.38.33-.81.59-1.17.13-.18.34-.3.52-.41.4-.19.57-.14.87.2.58.33.9.83,1.27,1.36.46.83.85,1.68.94,2.65.03.19.02.35.06.58-1.47.22-2.94.44-4.4.66ZM32.35,141.21l.23-.04s-.02.08-.02.12c-.08.01-.16-.01-.24,0,0-.04.03-.08.03-.08ZM36.56,146.41s-.08.01-.12-.02c-1.55-.04-3.1.39-4.61.61-.74.09-.87.03-1.03-.69s-.22-1.47-.5-2.17c-.37-.97.26-1.43.84-2.01-.06.09-.09.17-.15.27-.03.05-.1.14-.15.26.28.03.41-.15.47-.28.51-.92,1.22-.97,2.02-.67,1.8.75,3.02,2.08,3.44,3.99.06.11.09.26.07.38-.06.09-.2.19-.26.32Z"/><path class="cls-1" d="M16.41,121.28c.83.23,1.63.45,2.5.16.08-.03.26,0,.42-.05.27-.04.6.01.84-.11.28-.15.55-.15.84-.07.73.14,1.39.31,2.08.48.29.08.64.24.97.36.18.06.4.13.58.16.7.1,1.44.2,2.22.24.52.04,1.03.18,1.55-.04.16-.05.34.01.52.03,1.36.23,2.72.42,4.08.65,1.06.19,2.13.34,3.25.2.19-.05.41.02.63.05.93.1,1.92.24,2.88.37.19.03.36.09.51-.11.38-.59.69-1.18.65-1.9.02-.11.03-.22.12-.32.27-.3.4-.66.06-.97.11-.21.32-.41.26-.49-.22-.33-.05-.68-.08-1.03.08-.06.2-.08.28-.15-.08-.46-.25-.86-.76-.97-.07-.01-.15-.25-.17-.36-.01-.19.06-.41.12-.55.25-1.24.58-2.48.79-3.73.18-1.03.29-2.07.37-3.15.01-.11-.07-.31-.17-.44-.28-.42-.8-.19-1.13-.5-.03-.04-.25.15-.35.1-.54-.15-1.01-.33-1.55-.52-.11-.02-.25-.07-.34-.01-.37.25-.76.05-1.18-.2-.18.46-.46.05-.72.05-.07.25-.15.51-.21.69-.19.01-.34.03-.46.05-.01.64.02,1.21-.06,1.76-.25,1.51-.5,3.01-.79,4.52-.06.41-.14.73-.23,1.1-.04.3-.25.42-.54.38-1.19-.09-2.37-.26-3.5-.53-.07-.01-.11-.05-.11-.05.09-.63.17-1.18.25-1.77.2-1.14.4-2.28.56-3.42.07-.51-.22-.82-.74-.86-.11-.02-.25-.07-.36-.12-.07-.05-.17-.14-.17-.1-.25.15-.45.01-.67-.09-.17-.1-.43-.14-.65-.21,0-.23-.06-.38-.09-.65-.14.21-.2.31-.29.45-.18-.06-.36-.13-.51-.15-.09-.43.19-.8.03-1.28-.11.21-.16.32-.21.42-.11.25-.18.5-.25.72-.07.21-.23.3-.44.2-.15-.25.23-.57-.07-.87-.11.21-.17.39-.24.61-.03-.34-.02-.64.06-.93.08-.29.19-.54.16-.84-.07-.01-.11-.02-.15-.02-.15.54-.31,1.12-.5,1.7-.44-.06-.2-.48-.37-.81-.11.25-.16.35-.19.5-.3,1.31-.75,2.6-.71,3.96.02.91-.5,1.7-.59,2.59-.03.22-.23.27-.42.28-.96-.1-1.88-.27-2.73-.65-.02-.12-.05-.19,0-.26.17-.92.3-1.88.51-2.79.18-.77.33-1.57.3-2.37.05-.63.1-1.23.18-1.82.08-.55.23-1.06.3-1.61.1-.47.02-.71-.43-.93-.28-.11-.6-.27-.83-.27-.37-.01-.45-.25-.49-.52-.08.02-.11.02-.12.06-.14.17-.26.27-.43.13-.1-.09-.19-.25-.17-.4-.01-.19.05-.37.05-.6.03-.22.14-.43-.04-.76-.12.58-.23,1.06-.36,1.49-.6-.24-.7-.36-.55-.87.08-.33.24-.64.03-1.01-.12.32-.24.64-.36.96-.03-.08-.06-.12-.11-.28-.14.47-.27.83-.39,1.19t-.07-.01c-.06-.12-.08-.2-.11-.32-.1-.05-.18-.06-.33-.08.06-.41.13-.89.19-1.37-.04,0-.03-.04-.07-.05-.11.28-.23.57-.31.86-.04,0-.07-.05-.11-.05.06-.44.12-.89.18-1.29t-.07-.01c-.13.4-.23.8-.36,1.23-.04,0-.07-.01-.07-.01.07-.48.14-.96.21-1.51-.1.14-.14.17-.15.24-.24,1.13-.47,2.3-.75,3.47-.26,1.05-.09,2.24-.65,3.26-.05.07-.01.11-.02.19-.14.96-.42,1.9-.45,2.91,0,.26,0,.53-.04.82-.29,1.77-.54,3.54-.78,5.27-.09.67-.11,1.3-.21,2-.06.67.03.87.71,1.12.21.07.44.06.7.14.22.03.41.06.62.13Z"/><path class="cls-1" d="M47.46,86.08c-.79-.33-1.58-.59-2.35-.95-1.2-.61-2.31-1.3-3.56-1.89-1.51-.72-3.04-1.41-4.57-2.09-.47-.22-.96-.5-1.5-.75-.44-.21-.91-.43-1.41-.67-.52-.2-1.08-.43-1.71-.65.44-.74.84-1.33,1.14-1.97.55-1.06.84-2.28,1.47-3.34.03-.07.05-.1.03-.15,0-.08.03-.23-.02-.3-.27-.29-.38-.76-.82-.97-.3-.15-.57-.27-.88-.42-.27-.21-.47-.39-.86-.37-.1.04-.23-.03-.33-.08-.4-.11-.86-.28-1.26-.39-.5-.16-1.3.04-1.59.48-.37.52-.73,1.1-1.05,1.69-.74,1.38-1.44,2.78-2.15,4.17-.19.41-.37.77-.54,1.15-.47.81-.93,1.62-1.38,2.48-.21.35-.32.76-.51,1.16-.4.84-.83,1.67-1.26,2.49-.08.17-.19.4-.16.59.06.56.32,1.06.32,1.59,0,.08.09.16.14.23.36.46.73.89,1.14,1.33.08.08.2.18.34.24.69.37,1.33.84,2.18.71.08,0,.24.03.34.08.32.11.55-.03.71-.28.08-.17.19-.41.32-.59.54-1.06,1.11-2.15,1.67-3.25.26-.54.29-.52.86-.25,1.43.64,2.76,1.39,4.17,1.98,1.88.81,3.63,1.73,5.48,2.6.44.21.87.42,1.25.68.88.5,1.7,1.1,2.74,1.26.12.01.25.08.32.11.91.35,1.8.65,2.69,1.03.28.09.5.07.7-.17.1-.12.18-.29.29-.44.27-.41.57-.76.89-1.18.08-.17.18-.29.23-.47.11-.24.19-.49.29-.69.19-.57.43-1.07.6-1.61.19-.57.03-.93-.41-1.31-.61-.45-1.3-.58-1.97-.81Z"/><path class="cls-1" d="M55.37,71.26c.05.05.13.08.19.13.29.23.62.49.89.69.11.1.16.26.29.28.51.17.8.51,1.1.9.24.34.61.38.9.4.34.07.47-.17.65-.36.08-.08.21-.16.34-.25.16-.11.39-.25.57-.43.46-.59.9-1.21,1.33-1.82.33-.4.61-.81.98-1.18.51-.59.52-1.3-.15-1.79-.4-.28-.86-.61-1.23-.92-.99-.79-1.96-1.56-2.9-2.36-.78-.64-1.59-1.31-2.31-2-.43-.36-.41-.44-.07-.84.05-.06.1-.11.16-.16,1.24-1.24,2.47-2.43,3.73-3.7.05-.05.1-.05.21-.11.13.07.27.15.4.28,1.13,1.08,2.24,2.14,3.36,3.22.22.21.41.44.57.65.65.67,1.14,1.4,1.91,1.88.35.23.51.28.87.16-.11-.05-.16-.1-.38-.25.82.06,1.34-.37,1.75-.75.49-.46.82-1.02,1.31-1.43.52-.38.63-1.15,1.31-1.37.02-.03.05-.16.1-.27.02-.13.05-.32.1-.48.07-.34.01-.55-.36-.65-.42-.1-.77-.38-1.1-.74-.51-.54-1-1.11-1.54-1.68-.86-.88-1.75-1.73-2.61-2.55-.67-.59-1.37-1.21-1.97-1.83-.89-.9-1.76-1.83-2.67-2.76-.49-.52-1.13-.97-1.67-1.49-.91-.87-1.75-1.78-2.67-2.65-.73-.75-1.48-1.41-2.18-2.08-.24-.23-.51-.38-.75-.62-.35-.23-.67-.28-1.03,0-.23.19-.47.33-.7.46-.39.3-.78.6-1.17.84-.15.11-.31.22-.36.38-.35.8-1.13,1.34-1.34,2.27-.02.08-.1.16-.18.24.22.26.38.52.57.7.92.93,1.89,1.8,2.78,2.7s1.73,1.81,2.56,2.71c.24.23.22.31-.04.63-.08.08-.15.16-.23.24-1.16,1.16-2.34,2.29-3.53,3.43-.03.03-.08.03-.16.06-.54-.83-1.42-1.31-2.25-1.79-.19-.13-.37-.25-.56-.33-.8-.51-1.47-1.1-2.07-1.87-.27-.36-.68-.7-1.08-.98-.38-.31-.8-.4-1.27-.23-1.85.7-2.93,2.04-3.52,3.85-.12.5-.03.95.4,1.31.35.33.76.72,1,1.11.57.91,1.46,1.5,2.37,2.05.69.46,1.37.94,2.06,1.45.35.28.3.39.15.76-.02.13-.07.24-.18.35-.38.51-.19,1,.25,1.57.03.08.11.15.22.21.27.26.46.54.6.88.11.26.33.47.54.62.51.33,1.1.63,1.63.94.24.13.48.25.74.14.31-.17.47-.06.66.17.19.18.35.33.51.54.44.62,1.03,1.08,1.69,1.46.11.05.24.13.35.23.7.62,1.4,1.23,2.12,1.82ZM66.1,63.26c-1.05-.85-1.78-1.96-2.75-2.83-.97-.93-1.94-1.8-2.91-2.73,2.12,1.61,3.91,3.57,5.66,5.56ZM50.94,48.12c-.46-.39-.89-.85-1.29-1.29,1.02.71,1.78,1.7,2.64,2.57-.61-.28-.86-.88-1.35-1.29ZM54.2,51.44c-.54-.51-1.05-1-1.59-1.52.05-.05.08-.08.13-.13.49.57.97,1.08,1.46,1.65.35.33.76.72,1.13,1.08-.03.03-.05.05-.1.11-.33-.41-.7-.83-1.03-1.19Z"/><path class="cls-1" d="M72.29,30.33c.24.21.5.45.79.68.27.19.45.44.49.75.21.94.44,1.92.62,2.88.27,1.38.43,2.77.68,4.11.27,1.38.6,2.68.88,4.01.17.79.31,1.61.49,2.4.03.28-.03.57,0,.8.06.35.28.61.34.87.22,1.2.5,2.44.72,3.63.14.65.69,3.57.84,4.16.15.43.28.52.66.37.4-.13.84-.33,1.22-.57.64-.38,1.31-.87,1.96-1.31.26-.14.44-.36.6-.7.29-.41-.27-3.11-.32-3.51-.07-.6.05-.7.57-.98,1.17-.58,2.32-1.2,3.43-1.8.2-.11.38-.25.64-.39s.45-.11.64.08c.24.21.43.49.69.73.65.58,1.3,1.16,1.96,1.69.07.05.12.06.2.06.06-.12.19-.27.25-.39.37.06.62.6.98.32.23-.21.4-.51.64-.85.09.08.2.14.44.27-.13-.56.04-.87.32-1.14.24-.26.25-.72.75-.82-.14-.35-.02-.58.29-.79.29-.24.33-.56.22-.92-.15-.51-.36-.99-.77-1.36-.24-.21-.46-.47-.7-.76-.74-.83-1.6-1.64-2.26-2.55-.77-1.11-1.69-2.05-2.64-3.03-1.58-1.6-3.24-3.13-4.85-4.71-1.46-1.46-2.87-2.99-4.36-4.43-.12-.15-.29-.23-.45-.36-.65-.67-1.44-.96-2.3-1.3.05.4-.2.65-.43.86-.21.16-.46.33-.7.5-.32.26-.68.54-1.06.78-.18.14-.28.36-.46.41-.41.18-.4.6-.61.92-.05.07-.03.27.04.31.46.47.38,1.11.68,1.67-.5-.37-.84-.78-1.41-.98.09.17.14.26.28.36ZM80.32,38.04c1.16.98,2.08,2.06,3.19,3.11-.8.47-1.51.89-2.37,1.27-.34-1.51-.62-2.88-.99-4.29.03-.02.13-.07.16-.09Z"/><path class="cls-1" d="M108.56,42.28c.43-.12.66-.31.67-.73,0-.61.05-1.18-.06-1.81-.16-1.11-.85-4.31-1.05-5.41-.08-.21-.16-.46-.2-.68-.23-.64-.47-1.35-.67-2-.1-.36-.17-.73-.22-1.02.04,0,.07-.05.14-.06.34,1.49.8,2.96,1.4,4.4.09-.13.19-.22.17-.33-.05-.26-.12-.47-.17-.73-.25-.75-.5-1.54-.75-2.29.58.5,1.04,1.14,1.54,1.62,1.97,1.88,3.97,4.17,5.9,6.02.27.25.54.47.85.72.48.33.55.32.91-.01.36.12.73.29,1.09.37.39.08.8,0,1.1-.2.53-.4,1.01-.9,1.57-1.38.09.1.23.23.42.42.12-.17.21-.3.23-.42.06-.31.03-1.1-.03-1.43-.05-.48-.05-.9.57-1.05-.5-1.12-.72-2.29-.81-3.45-.02-.34.07-.65.02-.95-.27-1.5-.58-3-.85-4.5-.26-1.47-.5-2.97-.77-4.48-.37-2.05-.94-4.56-1.31-6.62-.16-.92-.52-1.61-1.41-1.94-.08-.02-.12-.05-.13-.09q-.45.23-.78.1c-.09-.06-.22-.19-.29-.14-.73.17-1.37.17-2.1.11-.03,0-.07.05-.1.06-.39.15-.79.26-1.23.11-.18.49-.18.9-.1,1.34.16.65.43,1.78.56,2.47.27,1.5.5,2.97.73,4.49.24,1.32.44,2.65.63,3.94.07.56.16,1.11.23,1.66-.36-.31-.69-.67-.99-1.07-.8-1.1-1.72-2.19-2.72-3.14-.63-.57-1.21-1.22-1.71-1.92-1.1-1.24-2.03-2.63-3.29-3.73-.32-.28-.54-.7-.88-.9-.35-.28-.78-.35-1.13-.59-.42-.23-.77-.28-1.11.13-.22-.15-.38-.23-.52-.36-.47.12-.93.32-1.43.26-.35-.05-.62.11-.8.41-.13.33-.37.48-.69.58-.11.02-.22.04-.36.1.07.36.16.65.21.98.04.22.07.4.03.6-.15.86.09,1.73.35,2.55.4,1.18.58,2.39.87,3.55.14.54.2,1.14.3,1.65.32,1.8.5,3.58,1.11,5.29.18.57.34,1.23.48,1.81.37,1.86,1.24,5.8,1.61,7.66.08.25.19.42.45.41.61.04,1.23.08,1.86.04.61,0,1.23-.07,1.86-.18.3-.02.58-.18.83-.23Z"/><path class="cls-1" d="M154.07,19.06c.16-.39-.32-.16-.36-.43.01-.11.05-.33.05-.37-.16-.21-.25-.37-.34-.54-.11-.02-.3,0-.49-.03.02-.15.03-.26.09-.4-.18-.06-.29-.08-.47-.11.15-.24.28-.41.35-.59,0-.04.01-.07-.03-.08-.23.04-.46.09-.66.13-.03-.04-.07-.05-.07-.05-.01-.19,0-.3,0-.49-.02-.42-.16-.51-.54-.42-.12.02-.24.08-.32.1-.87.07-1.54.46-2.14,1.02-.17.16-.34.29-.55.41-.37.25-.79.53-1.13.82-1.39,1.05-2.79,2.17-4.18,3.21-.09.1-.25.15-.41.25-.54-.98-1.06-1.84-1.52-2.81-.64-1.33-1.24-2.7-1.87-4.1-.09-.16-.17-.36-.29-.61-.15-.28-.36-.39-.7-.36-.46.05-.89.14-1.24.5-.29.22-.64.32-1.05.23-.26-.04-.55-.08-.78-.11-.19.28-.27.56-.48.72-.26.23-.58.37-.86.52-.61.29-.72.54-.47,1.18.16.47.37.88.53,1.32.59,1.17,1.16,2.42,1.75,3.59.94,1.9,1.95,3.77,2.93,5.68.09.16.18.33.2.48-.06.67-.08,1.38-.21,2.04-.2,1.14-.46,2.23-.73,3.32-.01.07.01.19,0,.27-.07.48-.1.96-.13,1.41-.07.71-.13,1.39-.2,2.08-.04.43-.09.87-.12,1.29-.03.22.02.42.03.61.04.23.05.46.09.69.09.43.18.85.3,1.32.07-.02.11-.03.16-.05.29-.08.33-.12.46-.36.2-.39.43-.36.68-.02.1.13.19.25.32.42.14-.21.23-.3.28-.37.18.06.32.12.47.14.14.06.28.12.47.14.22-.5.74-.46,1.17-.55.3.23.54.41.77.67.24-.34.47-.65.6-1.04.23-.83.47-1.74.63-2.58.32-1.72.22-3.47.58-5.19.29-1.24.4-2.54.53-3.8.07-.48.22-.79.64-1.07.81-.64,1.61-1.28,2.45-1.91.89-.74,1.82-1.44,2.71-2.18,1.18-.89,2.43-1.73,3.31-2.96.13-.13.21-.42.17-.65-.02-.12-.41-.29-.4-.36Z"/><path class="cls-1" d="M173.9,51.63c.28.38.46.83,1.03.92-.19.19-.4.3-.61.39-.3.13-.63.2-1.01.28.19.18.3.35.38.36.52.05,1.04.15,1.48-.28.04-.04.1-.07.15-.11.12-.09.23-.19.35-.27.15-.08.38-.15.54-.12.37.13.62.03.87-.25.62-.61,1.26-1.25,1.84-1.94.71-.87,1.17-1.96,2.1-2.62.02-.03.04-.06.07-.09.26-.36.36-.38.73-.12.49.4.99.8,1.5,1.16.45.27.66.61.48,1.12,0,0,.04.07.07.1.05-.06.12-.1.21-.17-.15.67-.35,1.26-.38,1.88.03.02.08.01.14.06.21-.68.39-1.32.63-1.98.03.02.06.05.11.03-.02.08,0,.19-.01.27-.48,2.08-.96,4.17-1.38,6.24-.11.61-.19,1.24-.25,1.83-.02.17.04.4.13.59.1.25.25.23.47.11,0,0,.03.02.06.04.03.15.03.34.06.5.47-.08.58-.04.78.19.16.16.78.37.99.34.44-.1.84-.09,1.1.19.32,0,.58-.05.78,0,.78.19,1.2-.01,1.4-.74.17-.56.2-1.18.32-1.74.29-1.44.56-2.84.89-4.26.12-.55.27-1.09.42-1.62.34-.03.66-.03,1-.11.41-.07.84-.22,1.25-.34,2.44-.73,4.38-2.05,5.57-4.36.48-.93.89-1.88.97-2.97.08-1.72-.18-3.42-.77-5.03-.29-.75-.57-1.51-1.21-2.09-.09-.06-.14-.19-.16-.29-.02-.29-.2-.42-.42-.57-.18-.13-.38-.23-.57-.36-1.09-.78-2.16-1.59-3.28-2.34-.51-.37-1.08-.73-1.56-1.15-.65-.56-1.24-1.16-1.99-1.64-.29-.17-.53-.29-.9-.28-.4-.01-.81-.08-1.09-.46-.46.13-1,.43-1.26.75-.34.35-.66.67-.91,1.09-.59.82-1.09,1.65-1.67,2.47-1.92,2.7-3.85,5.41-5.77,8.11-.73,1.03-1.45,2.03-2.19,3.01-.43.61-.87,1.16-1.32,1.72-.63.88-1.32,1.67-1.26,2.86.02.42.07.74.38,1,.27.2.52.42.7.68ZM185.79,41.75c.45-.64.82-1.29,1.28-1.93.35-.49.71-1,1.1-1.55.24.12.43.17.55.25,1.05.71,2.16,1.4,3.08,2.29.07.1.14.19.18.27.57,1.13.64,2.24-.02,3.37-.21.36-.45.64-.84.73-.28.07-.5.19-.75.29-.41.12-.73.07-1.05-.2-1.14-.9-2.25-1.79-3.38-2.64-.46-.38-.44-.41-.15-.88Z"/><path class="cls-1" d="M197.37,65.96c-.68.52-1.39,1-2.07,1.52-.17.14-.34.28-.55.45-.29.29-.49.7-.39,1.05.17.49.37,1.09.74,1.47.46.44.83,1,1.29,1.5.34.35.64.72.95,1.15.46.78,1.47.96,2.17.34.54-.45,1.12-.93,1.69-1.4,1.06-.88,2.2-1.73,3.29-2.58.48-.35.91-.71,1.4-1.06.63-.52,1.29-1.02,1.89-1.52.83-.69,1.67-1.43,2.45-2.12.47-.43.93-.87,1.36-1.28.7-.68,1.32-1.39,1.96-2.01,1.1-1.01,2.25-1.96,3.49-2.74.54-.34.68-.81.62-1.48-.07-.67-.39-1.17-.77-1.69-.49-.66-.81-1.45-1.56-1.95-.42-.28-.84-.66-1.29-.97-.35-.24-.5-.26-.82,0-.34.23-.6.45-.89.68-.88.68-1.79,1.29-2.55,2.06-1.55,1.58-2.95,3.22-4.69,4.56-.91.71-1.73,1.48-2.61,2.16-1.12.87-2.31,1.72-3.47,2.59-.52.43-1.06.83-1.63,1.25Z"/><path class="cls-1" d="M215.32,96.15c1.63.69,3.27.88,4.95.97,1.88.08,3.58-.49,5.08-1.63.72-.49,1.52-.98,2.27-1.49.4-.3.79-.61,1.2-.88.58-.43.87-1.05,1.29-1.66.61-.81,1.18-1.73,1.55-2.71.68-1.66.94-3.42.76-5.14-.13-1.54-.39-3.1-.93-4.53-.52-1.4-1.15-2.79-1.77-4.31-.42-.83-.91-1.72-1.38-2.65-.36-.61-.33-.63-1.03-.47-.1.05-.24.11-.37.17-.32.11-.56.21-.84.3-.51.15-1.06.28-1.55.46-.51.15-.92.42-1.41.6-.29.09-.41.27-.33.52.06.22.18.49.29.73.2.36.2.44-.14.68-.26.16-.51.32-.78.44-.76.39-1.51.73-2.27,1.12-1,.5-2.07,1.03-3.09,1.58-1.16.61-2.31,1.22-3.5,1.85-.76.39-1.56.8-2.33,1.19-.17.08-.37.09-.57.18-.25.07-.4-.06-.44-.33-.08-.25-.17-.46-.31-.68-.11-.24-.3-.31-.61-.25-.55.13-1.02.55-1.6.53-.05-.02-.12.1-.19.13-.37.17-.71.33-1.07.53-.17.08-.41.19-.58.35-.24.19-.35.32-.68.31-.5.07-.63.25-.55.78.09.74.5,1.37.94,1.95.54.74.95,1.53,1.32,2.35.14.3.26.66.47.93.35.58.68,1.12.82,1.8.03.07.06.14.12.19.25.38.57.8.83,1.18.1.12.24.26.37.36.23.23.49.43.73.69.23.22.45.53.69.79,1.15,1.07,2.45,1.87,3.76,2.66.24.17.59.3.89.41ZM213.97,86.56c.59-.31,1.19-.63,1.85-.97,1.31-.72,2.66-1.34,3.98-2.14.9-.54,1.85-1.05,2.77-1.56.56-.3,1.17-.58,1.74-.84.27-.13.51-.23.8-.41.32-.19.49-.18.64.16.39.77.56,1.59.62,2.42.03.15-.06.32-.12.46-.25.36-.28.74-.29,1.16-.04.8-.29,1.52-.55,2.3-.38.87-1.04,1.5-1.87,1.92-1.03.52-2.17.99-3.25,1.49-.37.17-.79.24-1.21.14-1.21-.22-2.4-.5-3.51-1.06-.21-.11-.43-.21-.66-.27-.08,0-.19.04-.29.09-.33-.63-.69-1.24-1.02-1.87-.26-.58-.21-.72.35-1.02Z"/><path class="cls-1" d="M241.99,116.27c-.41-1.46-.99-2.86-1.87-4.12-.34-.45-.59-1.1-1.35-1.18-.08-.03-.12-.1-.16-.14-.33-.34-.66-.64-1.1-.86-.08-.03-.16-.06-.2-.13-.36-.64-.95-.92-1.5-1.2-1.81-.87-3.78-1.13-5.73-1.2-.75.03-1.52.19-2.35.05,0,0,0-.04-.04-.03.03-.04.03-.08.21-.17-.41,0-.75,0-1.05.03-2.29.26-4.43,1-6.19,2.56-.35.26-.62.55-.93.88-1.08.82-1.87,1.91-2.62,3.03-.62.92-.93,2-1.23,3.12-.15.73-.27,1.45-.19,2.23.02.18,0,.45.13.51.2.17.18.32.2.5.01.11.02.22.03.37.02.26.05.48.07.74.25.65.5,1.3.75,1.91-.13.16-.31.26-.37.41-.2.62-.44,1.2-.08,1.81.05.11.06.26.08.4-.05.27.02.56.15.81.14.25.16.47-.08.68-.07,0-.11.09-.24.21.64.05.82.33.69.87-.03.12.15.36.27.42.39.19.78.37,1.26.21.65-.21,1.25-.2,1.85-.22.37,0,.71-.07,1.08-.11.3-.03.67-.07,1-.1.59-.06,1.19-.08,1.78-.14,1.67-.2,3.3-.36,4.95-.34.45,0,.9-.01,1.34-.06.26.01.52-.09.56-.43.12.02.23.09.27.08.21-.13.5-.2.67-.4.1-.12.04-.38.06-.57,0-.04,0-.07-.01-.11.21-.54.04-1.09,0-1.57-.04-.78-.12-1.56-.16-2.38-.03-.29.09-.64.09-.94,0-1.54-.07-2.99-.4-4.45-.14-.62-.26-.72-.92-.55-.03,0-.07,0-.11.01-.29.14-.51.09-.82,0-.62-.16-1.26-.29-1.91-.04-.25.14-.59.1-.88.16-.11.01-.26.06-.36.15-.25.1-.43.23-.68.37.03.37.08.82.08,1.19.04,1.19.09,2.43.13,3.62,0,.34-.07.38-.41.41-.37.04-.67.03-1.04.07-.56.05-1.19.12-1.78.14-.45,0-.57-.09-.58-.54.02-.15.05-.27.07-.38.02-.23.1-.46.04-.72-.25-.99-.32-2.07-.38-3.15-.01-.15.07-.38.17-.54.35-.67.73-1.31,1.19-2.03.14-.13.23-.32.41-.45.35-.26.66-.48,1.02-.7.83-.72,1.85-.97,2.86-1.03,1.6-.08,3.17-.16,4.74.17,1.33.21,2.3.94,3.05,2.06.48.74.82,1.53,1.06,2.4.37,1.46.17,2.9-.63,4.26-.17.2-.29.51-.29.81-.05.27-.14.5-.3.7-.3.37-.29.48.04.82.16.13.36.23.59.28.16.06.45.03.65.12.52.29,1.07.57,1.63.89.11,0,.25-.1.43-.19.28.2.56.4.8.56.4-.15.72-.33.94-.77.06-.12.17-.2.24-.28.55-.88,1.02-1.79,1.3-2.75.22-.77.29-1.6.36-2.39.14-1.29.06-2.48-.29-3.68ZM215.83,119.18c0-.3.02-.6-.01-.86.03.26.06.55.05.86h-.04ZM226.12,108.39c-.52.09-1.03.21-1.54.34-.33.07-.69.21-.98.36.23-.28.6-.36.98-.36.4-.15.83-.34,1.3-.46.55-.13,1.15-.15,1.77-.25,0,.03,0,.07.02.15-.52.05-1.04.14-1.55.23ZM228.45,108.12c.57-.32,2.67-.26,4.12.04-1.4-.12-2.72-.29-4.12-.04ZM238.67,111.46s-.16-.06-.2-.09c-.58-.54-1.08-1.05-1.61-1.52-.12-.06-.2-.13-.32-.19,0-.04.03-.04.07-.08.08.1.16.17.25.27.2.13.43.18.6.35.45.41.86.78,1.28,1.19-.03.04-.07.05-.07.08ZM239.67,112.9c-.09-.18-.22-.35-.32-.53-.08-.1-.17-.17-.29-.24.07,0,.07-.04.11-.05.08.1.13.17.18.28.13.14.29.27.38.45-.04,0-.07.05-.07.08ZM240.36,114.22c.35.36.48.83.6,1.32-.22-.42-.38-.87-.6-1.32ZM241.07,116.06c-.01-.13-.05-.27-.07-.43.05.14.14.28.19.42-.04,0-.07,0-.11.01ZM241.88,118.27c.02-.15.01-.26,0-.41h.04c.01.15-.01.26,0,.41h-.04Z"/><path class="cls-1" d="M240.83,143.5c-.21-.08-.43-.1-.68-.19-.22-.05-.4-.09-.61-.17-.81-.3-1.59-.58-2.48-.36-.08.02-.26-.02-.42.02-.27.02-.6-.06-.85.04-.29.13-.56.11-.84,0-.72-.2-1.36-.42-2.03-.64-.28-.1-.62-.29-.93-.44-.17-.08-.38-.16-.56-.2-.69-.15-1.42-.31-2.2-.41-.52-.08-1.01-.26-1.55-.08-.16.04-.33-.04-.52-.08-1.34-.34-2.68-.64-4.02-.97-1.05-.27-2.1-.5-3.22-.45-.2.03-.41-.05-.63-.1-.92-.16-1.9-.38-2.84-.59-.18-.04-.36-.12-.51.08-.43.55-.78,1.12-.79,1.85-.02.11-.05.22-.15.31-.29.28-.45.63-.14.96-.12.2-.35.38-.29.47.19.35,0,.69,0,1.03-.09.06-.2.07-.29.13.05.47.18.88.69,1.03.07.02.13.26.15.38,0,.19-.09.4-.16.54-.35,1.22-.77,2.42-1.08,3.65-.26,1.01-.45,2.04-.62,3.11-.02.11.05.32.13.45.25.44.78.25,1.09.59.03.05.26-.13.36-.07.53.2.98.41,1.5.64.11.02.24.09.33.04.39-.22.76.02,1.16.29.21-.45.46-.01.72,0,.09-.25.19-.49.26-.67.19,0,.34,0,.46-.01.06-.63.08-1.2.2-1.75.37-1.48.73-2.97,1.14-4.44.09-.4.2-.72.32-1.07.06-.29.28-.4.57-.33,1.18.18,2.35.44,3.45.8.07.02.1.06.1.06-.14.62-.26,1.16-.39,1.75-.29,1.12-.57,2.24-.82,3.37-.11.51.16.84.68.91.11.02.24.09.34.15.07.05.16.15.17.11.26-.13.45.02.65.14.16.11.42.17.63.26-.01.23.03.39.04.66.16-.19.22-.29.32-.42.17.08.35.15.49.19.06.43-.25.79-.13,1.27.12-.2.18-.3.24-.4.13-.24.22-.49.31-.69.09-.21.26-.29.46-.17.13.26-.28.55,0,.88.12-.2.2-.38.28-.59,0,.34-.03.64-.13.93-.1.28-.23.52-.22.83.07.02.11.02.15.03.19-.53.4-1.1.63-1.65.44.1.16.49.31.83.13-.24.19-.34.22-.49.4-1.28.95-2.54,1.02-3.89.05-.91.63-1.65.79-2.54.05-.22.25-.25.44-.25.95.17,1.85.41,2.67.86.01.12.03.2-.02.26-.24.9-.45,1.85-.72,2.74-.24.75-.46,1.54-.48,2.34-.1.63-.19,1.22-.32,1.8-.12.54-.31,1.04-.43,1.58-.14.47-.08.71.36.96.28.14.58.32.8.33.37.05.43.29.45.56.08-.02.12-.01.12-.05.15-.16.28-.24.44-.09.09.1.17.27.14.41,0,.19-.08.36-.1.59-.05.22-.17.42-.02.76.17-.58.31-1.04.48-1.46.59.28.67.42.48.91-.11.32-.29.62-.11,1.01l.44-.94c.02.08.05.12.09.29.18-.46.33-.8.49-1.15t.07.02c.05.12.07.2.08.32.1.06.17.08.32.11-.09.4-.2.87-.3,1.35.04,0,.03.05.06.05.14-.27.28-.55.38-.83.04,0,.07.05.1.06-.1.44-.19.87-.28,1.28t.07.01c.16-.38.29-.78.46-1.2.04,0,.07.02.07.02-.1.47-.21.94-.33,1.49.11-.13.15-.16.17-.23.32-1.11.65-2.26,1.02-3.4.34-1.03.27-2.23.9-3.2.05-.07.02-.11.04-.18.21-.95.57-1.86.68-2.87.02-.26.04-.52.11-.82.42-1.74.81-3.48,1.19-5.19.15-.65.21-1.29.36-1.98.11-.66.04-.87-.62-1.17Z"/><path class="cls-1" d="M84.89,208.51c-.44-.21-.8-.52-.98-.98-.15-.39-.45-.62-.77-.74-.56-.26-1.11-.43-1.69-.63-.34-.14-.61-.1-.85.12-.39.31-.75.63-1.16.96-.14.13-.28.31-.47.41-.81.55-1.65,1.08-2.51,1.63-.63.36-1.34.71-2.01,1.08-.95.52-1.89,1.13-2.7,1.89-.44.43-.99.73-1.55,1.15.06-.24.08-.38.13-.5.25-.97.5-1.94.8-2.87.1-.45.19-.94.42-1.36.57-.97.69-2.08.85-3.16.04-.05.03-.14.01-.23-.17.23-.25.49-.28.75-.11.84-.24,1.7-.71,2.43-.06.08-.06.19-.1.29-.38,1.35-.8,2.71-1.18,4.07-.06.24-.14.45-.16.64-.1.24-.22.4-.52.53.03-.14.02-.19.03-.26.37-1.28.71-2.54,1.08-3.82.16-.48.3-.98.48-1.44.38-.83.69-1.72.83-2.65.04-.21.16-.48.28-.63.31-.41.3-.61-.07-.97-.26-.24-.49-.57-.73-.83-.19-.22-.43-.49-.68-.63-.73-.47-1.55-.65-2.36-.74-.14-.03-.34.02-.49.11-.19.1-.38.24-.51.41-.8.8-1.69,1.4-2.61,1.99-1.04.69-2.17,1.29-3.27,1.9-.04.05-.08.1-.13.18-.03-.06-.06-.13-.07-.17.08-.42.15-.84.28-1.23.36-1.33.67-2.69,1.24-3.94.48-1.12.8-2.28,1.13-3.42.26-.88.59-1.79.99-2.65.38-.71.24-1.65-.38-2.2-.54-.56-1.13-1.05-1.91-1.24-.11,0-.21-.04-.29-.1-.47-.23-.98-.34-1.49-.36-.57.01-1.05.33-1.22.88-.14.45-.28.91-.44,1.39-.31.84-.58,1.68-.9,2.52-.33,1.07-.72,2.13-1.08,3.19-.22.51-.5.98-.65,1.51-.24.86-.44,1.75-.7,2.63-.26.93-.51,1.85-.81,2.78-.42,1.08-.83,2.21-1.05,3.36-.12.43-.84,1.44-.92,1.91-.07.31-.11.68.02.93.1.24.43.44.65.57.47.27.93.58,1.46.82.79.28,1.52.74,2.36.85.61.1,1.67-.74,1.89-1.3.06-.08.09-.17.12-.27.19.02.33.05.48,0,.33-.11.7-.24,1.06-.45.95-.57,1.87-1.15,2.83-1.75.12-.11.29-.18.55-.3-.05.28-.09.49-.12.63-.23.63-.44,1.27-.62,1.89-.11.36-.15.73-.23,1.1-.11.84-.19,1.74-.45,2.62-.17.43-.29.86-.33,1.35-.1.4-.05.81-.05,1.24-.02.03.02.14.07.17.24.26.45.46.71.65.38.29.69.68,1.15.86.36.15.68.47,1.01.68.1.08.24.1.36.15.21.04.46.03.63.12.32.16.59.12.86-.03.47-.25.95-.52,1.44-.8.44-.27.84-.48,1.23-.79.72-.54,1.37-1.08,2.09-1.67,1.2-1.01,2.46-1.99,3.68-3.03.49-.39.91-.84,1.41-1.18.9-.56,1.79-1.05,2.69-1.61.1-.08.22-.08.37-.12h-.04c.15-.08.27-.15.4-.21.19-.1.38-.19.57-.33.28-.15.59-.31.93-.5.04-.05.1-.13.16-.16.97-.59,1.68-1.54,2.53-2.25.04-.05.08-.1.12-.15.23-.31.2-.53-.17-.73Z"/><path class="cls-1" d="M97.25,212.44c-.65-.27-1.23-.72-2-.76-.43-.02-.91-.12-1.37-.16-.36-.03-.49.03-.61.36-.15.32-.25.59-.36.89-.36.89-.76,1.73-.99,2.63-.46,1.84-.79,3.66-1.49,5.41-.37.92-.64,1.84-.99,2.73-.44,1.13-.96,2.27-1.45,3.42-.2.54-.42,1.07-.66,1.63-.28.68-.59,1.35-.87,2.03-.07.18-.13.36-.21.57-.09.34-.06.73.17.94.34.29.75.65,1.18.77.53.12,1.05.38,1.6.55.4.11.79.25,1.2.44.68.38,1.5.07,1.75-.69.21-.57.43-1.17.64-1.77.4-1.11.88-2.23,1.31-3.33.2-.47.37-.92.57-1.39.24-.66.51-1.31.74-1.94.32-.87.61-1.78.89-2.63.16-.52.31-1.04.46-1.53.22-.8.38-1.6.58-2.34.38-1.22.81-2.42,1.39-3.54.25-.49.16-.9-.19-1.36s-.8-.7-1.3-.91Z"/><path class="cls-1" d="M124.34,218.15q-.43.08-.66-.11c-.06-.07-.14-.21-.2-.18-.64-.04-1.17-.2-1.75-.43-.03,0-.07.02-.1.02-.36.02-.71.02-1.04-.21-.27.36-.37.7-.41,1.08-.03.58-.08,1.57-.15,2.17-.15,1.3-.33,2.57-.51,3.86-.13,1.14-.29,2.28-.45,3.39-.09.47-.14.95-.23,1.42-.22-.35-.4-.72-.55-1.12-.39-1.11-.87-2.22-1.46-3.25-.38-.62-.69-1.3-.93-2-.59-1.29-1.01-2.65-1.78-3.87-.19-.31-.27-.71-.5-.96-.22-.32-.56-.48-.78-.76-.29-.29-.56-.42-.95-.17-.14-.18-.26-.29-.34-.42-.42-.02-.84.03-1.24-.14-.27-.13-.54-.06-.76.14-.19.24-.42.3-.71.3-.1-.01-.19-.02-.32,0-.04.32-.03.58-.07.86-.02.19-.04.35-.12.5-.33.67-.36,1.44-.35,2.18.04,1.07-.11,2.11-.17,3.13-.02.48-.11.98-.16,1.43-.18,1.55-.48,3.06-.4,4.61,0,.52-.03,1.09-.05,1.6-.15,1.62-.42,5.06-.57,6.69,0,.23.05.39.27.45.49.18.99.37,1.52.49.5.15,1.03.25,1.57.31.25.06.51,0,.74.02.38.01.62-.09.72-.43.15-.5.34-.96.4-1.5.14-.95.36-3.75.47-4.7,0-.19-.02-.42,0-.61-.03-.58-.05-1.23-.05-1.81,0-.32.04-.64.07-.89.03,0,.07-.02.13-.02-.08,1.31-.08,2.63.06,3.96.11-.08.21-.14.22-.23.03-.22.01-.42.04-.64-.02-.68-.03-1.39-.05-2.06.35.55.57,1.19.87,1.7,1.15,2.03,2.23,4.4,3.35,6.4.16.28.33.52.52.8.31.39.37.4.75.21.27.19.53.41.8.57.3.16.65.2.95.11.54-.2,1.05-.49,1.63-.75.05.1.13.24.24.45.14-.11.25-.2.29-.29.12-.24.3-.9.33-1.18.08-.41.18-.75.73-.72-.14-1.04-.02-2.06.19-3.03.06-.28.22-.52.25-.78.15-1.3.27-2.6.41-3.91.14-1.27.33-2.57.47-3.87.2-1.78.36-3.98.56-5.75.09-.79-.03-1.45-.68-1.94-.06-.04-.09-.07-.08-.11Z"/><path class="cls-1" d="M150.81,236.04c-.02-.48.01-.91.03-1.4-.02-.1,0-.23-.08-.28-.3-.24-.23-.61-.14-1.01-.43-.03-.16-.36-.23-.58-.23,0-.45.01-.61,0-.06-.15-.11-.27-.16-.36-.52.15-.98.33-1.46.41-1.3.18-2.59.37-3.9.52-.35.06-.64.07-.96.09-.25.04-.4-.09-.45-.35-.23-1-.4-2.01-.47-3-.01-.06.02-.1.02-.1.54-.09,1.01-.17,1.51-.25.98-.13,1.96-.26,2.94-.42.44-.07.62-.4.51-.83-.02-.1,0-.23.01-.33.02-.07.07-.17.04-.17-.19-.16-.13-.37-.1-.57.04-.17,0-.39,0-.58.18-.06.3-.15.51-.25-.2-.06-.3-.08-.44-.12,0-.16.01-.33-.01-.45.33-.18.71-.05,1.05-.3-.2-.03-.3-.05-.4-.06-.23-.03-.46-.02-.65-.02s-.31-.11-.28-.31c.16-.19.52.04.7-.28-.2-.03-.36-.04-.56-.04.27-.11.52-.18.78-.19.26-.01.49.02.73-.09-.01-.06-.02-.1-.02-.13-.48.02-1,.04-1.52.03-.06-.38.34-.28.56-.51-.23-.03-.33-.04-.46-.02-1.15.09-2.32.06-3.42.44-.74.25-1.52.03-2.27.18-.19.03-.28-.11-.34-.27-.17-.81-.27-1.61-.17-2.4.09-.05.15-.09.21-.07.79-.1,1.61-.24,2.41-.3.67-.05,1.37-.13,2.01-.37.53-.12,1.03-.24,1.53-.32.47-.08.92-.09,1.4-.17.42-.04.59-.16.65-.59.02-.26.07-.56,0-.75-.08-.31.09-.43.3-.54-.04-.06-.05-.09-.08-.08-.17-.07-.28-.15-.21-.32.05-.11.16-.22.28-.24.15-.06.32-.05.5-.11.19-.03.39,0,.61-.23-.51.05-.92.09-1.31.09.04-.56.11-.67.57-.68.29-.02.59.03.84-.24-.29-.02-.59-.03-.88-.05.06-.04.08-.08.2-.16-.42,0-.75,0-1.07-.02v-.06c.07-.08.13-.12.22-.17.02-.1,0-.16-.02-.29.35-.06.76-.13,1.17-.19,0-.03.03-.04.02-.07-.26-.02-.52-.04-.78-.03,0-.03.02-.07.02-.1.38-.06.76-.13,1.1-.19v-.06c-.37,0-.72.02-1.11.02v-.06c.4-.07.81-.14,1.28-.21-.14-.04-.17-.07-.24-.06-.99.1-2.01.2-3.03.28-.93.06-1.86.5-2.83.31-.07-.02-.09.02-.16.03-.82.14-1.66.15-2.49.38-.22.07-.43.14-.68.18-1.52.22-3.03.47-4.51.72-.57.1-1.09.25-1.69.35-.56.12-.7.25-.73.87,0,.19.06.38.07.6.03.19.06.35.06.54.03.74.05,1.45.51,2.08.04.06.07.21.15.33.1.21.15.49.3.66.19.19.26.41.27.67.07.64.1,1.21.14,1.82.01.26-.03.59-.05.88,0,.16,0,.36.02.51.1.6.2,1.23.38,1.88.11.44.12.89.44,1.26.08.11.08.28.11.43.16,1.17.36,2.34.52,3.51.12.92.27,1.83.68,2.7.09.15.09.34.12.53.16.78.3,1.63.44,2.45.03.16.02.32.23.38.58.16,1.14.26,1.72.04.09-.02.19-.03.29.02.31.14.64.15.81-.2.2.03.42.16.47.08.21-.26.55-.22.82-.33.07.05.12.14.19.19.36-.19.64-.43.6-.88-.01-.06.16-.19.25-.24.15-.06.35-.06.48-.05,1.08-.12,2.17-.17,3.25-.32.89-.11,1.77-.29,2.67-.51.1-.02.24-.14.32-.25.27-.34-.05-.7.12-1.06.03-.04-.19-.16-.17-.26Z"/><path class="cls-1" d="M180.97,222.63c-.96-.82-1.9-1.6-2.83-2.43-.37-.32-.7-.65-1.04-.99.12-.27.25-.51.33-.8.12-.34.18-.72.26-1.08.46-2.13.29-4.14-.95-5.99-.5-.75-1.05-1.45-1.82-1.96-1.26-.78-2.63-1.29-4.09-1.51-.68-.1-1.37-.19-2.07.04-.09.04-.2.02-.29,0-.23-.1-.4-.02-.6.07-.17.08-.33.19-.5.28-1.04.5-2.09.96-3.11,1.49-.49.23-.99.51-1.51.69-.69.26-1.38.45-2.06.81-.25.15-.43.28-.58.56-.17.3-.4.58-.8.63-.09.4-.09.93.03,1.26.12.4.23.78.44,1.14.37.78.79,1.5,1.16,2.28,1.23,2.56,2.45,5.13,3.68,7.69.47.98.92,1.93,1.35,2.89.28.58.51,1.14.74,1.7.4.84.7,1.68,1.62,2.13.33.16.58.25.91.13.26-.12.53-.22.8-.24.4-.05.81,0,1.12-.4.15.53,0,.96-.17,1.5.21-.07.39-.08.43-.14.25-.37.54-.72.41-1.22-.04-.16-.06-.36-.08-.53,0-.14.05-.34.14-.46.25-.22.28-.45.17-.75-.2-.72-.42-1.46-.69-2.18-.36-.89-.99-1.69-1.1-2.66-.01-.03-.03-.06-.04-.09-.16-.34-.14-.43.21-.6.5-.2,1.01-.41,1.5-.64.39-.22.73-.24,1.04.1,0,0,.07,0,.1-.01-.03-.06-.03-.13-.04-.23.44.39.8.78,1.25,1.07.03-.01.05-.06.1-.08-.42-.43-.83-.84-1.22-1.29.03-.01.06-.03.07-.07.06.04.14.07.2.12,1.36,1.22,2.73,2.45,4.11,3.63.41.33.85.66,1.27.95.11.09.31.13.5.15.23.03.27-.1.28-.31l.06-.03c.13.05.27.12.4.16.14-.38.21-.45.47-.51.19-.05.61-.43.67-.6.11-.37.28-.67.6-.75.13-.24.21-.45.33-.58.46-.51.49-.9.02-1.35-.35-.36-.8-.64-1.17-.96ZM172.37,215.81c-.06.24-.07.46-.1.68-.08.36-.25.58-.58.7-1.15.48-2.27.95-3.38,1.44-.47.19-.49.16-.72-.25-.29-.61-.62-1.15-.91-1.76-.22-.46-.46-.95-.7-1.47.19-.12.3-.25.42-.31.97-.5,1.95-1.04,3-1.36.1-.01.2-.03.27-.02,1.08.05,1.95.45,2.52,1.42.18.3.29.6.2.93Z"/><path class="cls-1" d="M201.67,207.42c-.95-1.16-2.14-2.07-3.07-3.25-.65-.87-1.44-1.67-2.19-2.46-.28-.31-.4-.59-.35-1.02.03-.88.06-1.76.11-2.66.01-.99.07-1.99.08-2.98.07-1.26.21-2.54-.1-3.8-.01-.16-.16-.37-.33-.47-.09-.05-.41.11-.46.06-.16-.33-.28.12-.47,0-.06-.07-.19-.21-.21-.24-.23-.01-.38-.05-.54-.08-.07.06-.17.19-.29.3-.08-.1-.15-.17-.21-.28-.14.08-.21.15-.33.25-.08-.23-.11-.41-.19-.55-.02-.02-.04-.05-.07-.03-.1.18-.2.35-.28.5-.05,0-.07.02-.07.02-.13-.1-.19-.17-.32-.27-.28-.22-.42-.18-.57.12-.05.09-.08.2-.11.27-.44.61-.55,1.26-.52,1.96.01.2,0,.38-.03.59-.05.38-.09.81-.09,1.19-.09,1.49-.13,3.02-.22,4.51.02.11-.04.25-.07.4-.94-.19-1.79-.33-2.68-.56-1.22-.32-2.45-.68-3.71-1.05-.16-.03-.33-.09-.56-.14-.27-.06-.45.02-.63.26-.22.33-.4.65-.36,1.09-.02.32-.15.6-.43.81-.17.15-.36.32-.5.45.07.28.22.49.21.71,0,.29-.08.58-.14.85-.15.56-.04.77.51.96.4.16.78.25,1.15.38,1.09.27,2.23.58,3.32.85,1.76.44,3.55.82,5.33,1.24.16.03.31.06.42.14.41.41.86.82,1.21,1.27.63.76,1.2,1.54,1.76,2.32.04.05.13.1.17.15.28.31.58.6.85.86.68.72,1.34,1.41,2.03,2.08.13.14.28.22.41.32.17.1.33.22.5.32.33.18.66.36,1.03.54q.18-.37.08-.63c-.14-.35,0-.47.37-.45.14,0,.27.02.45.03-.06-.21-.07-.32-.09-.39.14-.08.26-.14.35-.23.12-.06.23-.12.35-.23-.2-.42.11-.74.29-1.07.32-.07.57-.12.87-.13-.09-.34-.16-.67-.35-.97-.42-.61-.87-1.27-1.34-1.84Z"/><path class="cls-1" d="M170.95,102.78h.02s-.07-.1-.11-.16c-.04.04-.07.09-.12.13.06,0,.16.03.21.03Z"/><path class="cls-1" d="M128.27,97.63c.99,1.25,1.58,2.82,1.58,4.52,1.01-.5,2.11-.76,3.25-.74-.22-.42-.39-.87-.52-1.33-1.5-.69-2.7-1.89-3.44-3.35-.3.32-.59.63-.87.91Z"/><path class="cls-1" d="M117.32,97.2s-.05-.07-.08-.11c.01.05.03.1.04.15.01-.02.03-.03.04-.05Z"/><path class="cls-1" d="M122.78,158.46c.28-1.08.83-2.04,1.53-2.86-1.15-.36-2.2-.99-3.06-1.89-.62.32-1.27.58-1.95.71.09.52.14,1.06.12,1.61,0,.22-.06.42-.09.63,1.3.27,2.47.89,3.45,1.79Z"/><path class="cls-1" d="M178.61,66.15c-4.27-3.52-8.93-6.6-13.88-9.18-.61-.32-1.21-.64-1.83-.94-2.8-1.37-5.69-2.58-8.66-3.62-1.31-.46-2.64-.88-3.98-1.28-.91-.27-1.81-.53-2.73-.76-2.64-.67-5.32-1.2-8.05-1.61-1.61-.24-3.24-.41-4.87-.55-1.5-.13-3.02-.21-4.54-.25-.07,0-.14,0-.22,0-.67-.02-1.34-.05-2.01-.05-.85,0-1.68.04-2.52.06-.05,0-.11,0-.16,0-8.67.29-17.01,1.94-24.77,4.79-2.45.9-4.84,1.91-7.17,3.04-1.16.56-2.31,1.15-3.45,1.77-3.4,1.85-6.65,3.93-9.72,6.24-1.03.77-2.03,1.56-3.02,2.37-1.97,1.63-3.87,3.35-5.68,5.16s-3.53,3.7-5.16,5.68c-1.63,1.97-3.17,4.03-4.61,6.15-2.16,3.19-4.09,6.54-5.78,10.04-.84,1.75-1.62,3.53-2.34,5.34-1.08,2.72-2,5.52-2.78,8.37-1.81,6.67-2.77,13.68-2.77,20.91s.97,14.24,2.77,20.91c.77,2.86,1.7,5.65,2.78,8.37.72,1.81,1.5,3.6,2.34,5.34,1.69,3.49,3.62,6.85,5.78,10.04,1.44,2.13,2.98,4.18,4.61,6.15,1.63,1.97,3.35,3.87,5.16,5.68s3.7,3.53,5.68,5.16c.99.82,1.99,1.61,3.02,2.37,3.08,2.3,6.33,4.39,9.72,6.24,1.13.62,2.28,1.21,3.45,1.77,2.33,1.12,4.72,2.14,7.17,3.04,8.57,3.14,17.81,4.86,27.45,4.86,44.07,0,79.93-35.86,79.93-79.93,0-24.81-11.36-47.01-29.16-61.69ZM127.83,202.44c-41.14,0-74.61-33.47-74.61-74.61s31.37-72.47,70.71-74.5c.22-.01.45-.01.67-.02.11,0,.22,0,.34,0,.96-.04,1.92-.07,2.9-.07.35,0,.69.02,1.03.03.15,0,.3,0,.45.01.1,0,.21,0,.31,0,2.02.05,4.02.16,5.99.36,1.67.17,3.32.42,4.96.7,1.51.26,3.01.57,4.48.92,10.43,2.48,20.02,7.14,28.26,13.5,17.7,13.65,29.13,35.05,29.13,59.08,0,41.14-33.47,74.61-74.61,74.61Z"/><path class="cls-1" d="M255.67,127.83C255.67,57.35,198.32,0,127.83,0S0,57.35,0,127.83s57.35,127.83,127.83,127.83,127.83-57.35,127.83-127.83ZM127.83,250.34c-2.11,0-4.21-.05-6.29-.16-6.26-.32-12.39-1.11-18.36-2.33-3.98-.82-7.9-1.83-11.73-3.02-7.67-2.39-15.01-5.51-21.96-9.29-1.74-.94-3.45-1.93-5.13-2.95-3.37-2.05-6.63-4.25-9.78-6.61-3.15-2.35-6.17-4.86-9.08-7.49C20.83,196.05,5.32,163.72,5.32,127.83S20.83,59.61,45.5,37.19c2.9-2.64,5.93-5.14,9.08-7.49,3.15-2.35,6.41-4.56,9.78-6.61,1.68-1.02,3.39-2.01,5.13-2.95,6.94-3.78,14.29-6.9,21.96-9.29,3.83-1.2,7.75-2.21,11.73-3.02,5.98-1.23,12.11-2.02,18.36-2.33,2.09-.11,4.18-.16,6.29-.16,67.55,0,122.51,54.96,122.51,122.51s-54.96,122.51-122.51,122.51Z"/><path class="cls-1" d="M46.95,236.85c-.1-.4-.24-.79-.44-1.13-.16-.28-.39-.52-.6-.76-.34-.39-.71-.69-1.15-.92-.54-.28-1.11-.49-1.71-.59-.23-.02-.48-.13-.71.07-.03.01-.06,0-.08.01-.19,0-.37.02-.55.08-.03.01-.06.03-.09.02-.29-.07-.53.03-.76.11-.75.29-1.36.79-1.92,1.34-.19.23-.36.49-.63.7,0,0-.01,0-.02,0,0-.02-.01-.03,0-.11-.11.12-.21.22-.28.31-.55.74-.92,1.56-.95,2.5-.02.17-.01.33,0,.51-.06.54.04,1.07.16,1.59.1.43.33.82.57,1.21.17.24.35.47.6.67.06.05.13.12.18.1.1-.01.14.03.2.08.04.03.07.05.12.09.08.06.15.12.24.18.26.11.52.21.76.3.01.08-.01.16.02.22.13.23.23.46.5.52.04.01.09.05.14.09.06.09.17.15.28.18.11.03.18.08.18.21-.02.02,0,.05,0,.13.19-.17.32-.15.44.04.03.04.15.06.2.04.16-.06.32-.13.41-.31.12-.25.29-.42.44-.6.1-.11.17-.22.26-.34.07-.09.16-.21.25-.32.15-.19.3-.37.45-.56.4-.54.8-1.06,1.26-1.53.12-.13.24-.27.35-.41.08-.07.12-.17.03-.28.04-.03.09-.04.1-.06.02-.1.08-.2.07-.3,0-.06-.1-.11-.15-.17-.01-.01-.02-.02-.03-.03-.1-.21-.31-.31-.46-.43-.24-.2-.49-.39-.74-.6-.09-.07-.16-.2-.25-.29-.45-.42-.89-.8-1.41-1.1-.22-.13-.28-.12-.41.12,0,.01-.02.02-.03.03-.04.12-.12.17-.22.24-.22.13-.43.29-.53.55-.03.11-.13.2-.19.3-.03.03-.05.09-.06.14-.04.1-.05.19-.08.3.12.09.26.2.37.3.36.31.73.64,1.09.95.1.09.09.13,0,.23-.09.12-.17.2-.27.32-.14.18-.29.38-.45.56-.12.13-.18.14-.32.02-.04-.05-.06-.09-.09-.13-.06-.07-.11-.16-.2-.21-.36-.2-.69-.47-1.02-.75-.05-.04-.09-.13-.11-.2-.1-.29-.18-.57-.27-.9,0-.07-.03-.16-.02-.24.02-.17.04-.32.08-.49.02-.44.22-.81.48-1.11.41-.49.82-.97,1.35-1.33.42-.33.9-.41,1.44-.32.35.06.67.18.99.35.53.29.89.75,1.07,1.35.01.1.07.23.16.31.06.09.11.18.12.28.02.19.06.21.25.21.08-.01.16-.04.24-.1.06-.03.13-.12.21-.15.22-.07.46-.16.7-.23.03-.03.04-.1.06-.18.14-.03.27-.06.38-.08.06-.16.1-.3.03-.48-.02-.05-.01-.1-.02-.15ZM38.44,242.45c-.09-.08-.17-.17-.25-.23.08.06.18.14.26.22h0ZM38.11,236.5c-.12.17-.22.36-.32.54-.07.11-.13.26-.16.38-.02-.15.06-.27.16-.38.06-.16.13-.34.22-.51.11-.19.27-.37.41-.58.01,0,.02.02.05.04-.13.16-.24.34-.36.51ZM38.67,235.74c.06-.25.65-.85,1.14-1.19-.42.37-.83.71-1.14,1.19ZM42.36,233.72c-.32.02-.6.02-.89.05-.05.02-.09.02-.14.04-.01,0,0-.02,0-.04.05,0,.1,0,.15,0,.09-.02.17-.07.27-.08.24-.02.46-.04.69-.05,0,.02,0,.03,0,.04-.02,0-.06.03-.08.03ZM42.9,233.73c-.05,0-.1,0-.15.02.02-.02,0-.03.02-.05.05,0,.09.01.13.03.07,0,.16-.01.23.01,0,.01,0,.03,0,.04-.08-.02-.16-.03-.24-.05ZM43.71,233.94c.2,0,.38.09.55.19-.18-.05-.36-.13-.55-.19ZM44.44,234.24s-.09-.06-.15-.1c.06.02.12.04.17.06,0,.01-.02.02-.03.04ZM45.31,234.61s-.07-.08-.12-.11h0s.07.06.12.1h0Z"/><path class="cls-1" d="M59.23,243.85s-.08-.03-.12-.06c-.1-.06-.21-.11-.32-.18-.08-.05-.12-.06-.2-.1-.17-.14-.34-.3-.58-.25-.05,0-.09-.02-.14-.03-.16-.03-.18-.02-.26.12-.12.17-.41.66-.53.83-.09.15-.2.3-.3.46-.23.37-.42.72-.63,1.08-.05.09-.12.17-.14.26-.1.33-.31.59-.47.88-.32.59-.7,1.16-1.07,1.74-.13.21-.3.41-.46.63-.13-.08-.23-.09-.32.03-.04.03-.1.05-.15.05-.47-.06-.89-.2-1.2-.58-.13-.15-.19-.34-.27-.53-.03-.07-.05-.17.02-.27.22.59.51.96.79.99-.02-.03-.02-.05-.02-.05-.38-.21-.56-.57-.65-.96-.01-.06-.01-.15.02-.2.12-.2.27-.41.41-.62.28-.39.59-.76.85-1.16.23-.38.51-.74.7-1.14.15-.27.29-.54.44-.8.1-.2.23-.38.28-.6.07-.26.2-.49.35-.71.05-.09.09-.21.07-.29,0-.16.03-.28.1-.39.03-.07.07-.15.1-.22.05-.09.03-.17-.03-.23-.19-.14-.4-.26-.58-.39-.08-.05-.14-.11-.22-.15-.13-.07-.23-.21-.4-.23-.12-.04-.26-.06-.41-.08-.08-.01-.14,0-.19.09-.19.34-.39.67-.6,1.01-.17.31-.38.62-.56.93-.22.42-.44.83-.67,1.23-.09.17-.21.32-.32.49-.25.37-.51.75-.77,1.12-.23.35-.47.69-.71,1.02-.07.08-.11.16-.18.24-.29.38-.41.85-.51,1.31,0,.01-.01.05,0,.07-.02.63.21,1.22.55,1.72.25.4.55.76.93,1.04.41.3.84.55,1.29.74.63.25,1.3.34,1.94.26.38-.03.74-.16.95-.5,0-.01.02-.04.04-.04.32-.31.63-.61.96-.91.09-.09.2-.19.25-.3.08-.19.21-.4.34-.58.31-.47.6-.94.87-1.41.24-.43.46-.87.7-1.28.26-.47.53-.92.78-1.38.17-.3.49-.91.66-1.19.05-.11.03-.17-.04-.25-.09-.14-.18-.25-.36-.29Z"/><path class="cls-1" d="M72.61,251.85s.06-.12.06-.14c-.03-.1-.05-.17-.06-.25-.04-.02-.11-.04-.18-.07.03-.05.04-.09.08-.14-.06-.05-.1-.06-.17-.1.09-.07.16-.12.2-.18,0-.01.01-.03,0-.03-.09-.01-.19-.02-.27-.03,0-.02-.02-.03-.02-.03.02-.07.04-.11.06-.19.04-.16,0-.21-.16-.22-.05,0-.1,0-.13,0-.34-.08-.64,0-.94.13-.09.04-.17.07-.26.09-.17.05-.36.11-.53.18-.66.23-1.32.49-1.98.72-.05.03-.11.03-.19.05-.09-.44-.18-.83-.24-1.26-.08-.59-.15-1.18-.22-1.79-.01-.07-.02-.16-.04-.27-.02-.13-.09-.19-.22-.22-.18-.04-.36-.05-.53.04-.14.05-.29.05-.43-.04-.09-.05-.2-.1-.28-.14-.1.08-.17.18-.27.22-.13.06-.27.07-.39.09-.27.04-.34.12-.32.39,0,.2.03.38.04.57.08.52.15,1.06.24,1.58.13.84.29,1.68.43,2.52.01.07.03.15.02.21-.1.25-.2.52-.33.75-.21.41-.45.8-.68,1.18-.01.03-.02.07-.03.1-.08.17-.15.36-.22.52-.19.42-.36.83-.53,1.25-.04.08-.04.16-.06.23-.01.09-.04.18-.05.28-.02.17-.03.35-.04.54q.19.01.29-.08c.12-.12.21-.08.26.07.02.06.04.12.07.2.08-.06.12-.09.15-.11.06.05.11.08.16.11.05.04.09.08.16.11.14-.16.34-.09.51-.07.09.12.16.22.21.35.13-.1.26-.19.35-.33.19-.29.39-.61.55-.91.33-.62.5-1.3.84-1.91.26-.44.46-.92.66-1.39.08-.17.18-.28.37-.33.38-.15.77-.29,1.17-.43.43-.17.87-.33,1.3-.5.56-.2,1.13-.37,1.62-.73.07-.03.13-.14.14-.23,0-.05-.12-.16-.11-.19.11-.13-.1-.1-.08-.2Z"/><path class="cls-1" d="M83.58,255.57c-.53-.64-1.17-1.07-1.98-1.28-.13-.05-.24-.07-.37-.08-.77-.06-1.48.12-2.14.5-.58.34-1.01.83-1.23,1.48-.21.58-.18,1.16,0,1.74.03.12.11.28.19.4.36.57.87,1.02,1.47,1.37.33.21.7.43,1.02.68.13.09.2.18.26.35.09.27.08.57.03.85-.04.21-.19.36-.39.41-.23.06-.47.13-.68.18-.05.01-.1.01-.15.01-.52-.09-.97-.29-1.4-.6-.13-.11-.23-.26-.25-.45-.02-.12-.02-.25-.05-.4-.03.04-.05.06-.09.08-.03-.09-.06-.18-.08-.25-.04-.02-.07-.03-.1-.04,0-.09,0-.19,0-.29-.06-.02-.11-.05-.16-.07,0-.11.01-.22.02-.36-.05.06-.1.09-.13.13-.14-.14-.35.08-.46-.13-.08.05-.13.11-.24.18,0-.08,0-.13,0-.16-.03,0-.05,0-.08,0-.03.1-.08.21-.13.33,0-.15,0-.28-.07-.39-.11.12-.03.27-.13.37-.07-.06-.14-.13-.25-.2-.06.15-.09.3-.12.42-.01,0-.03-.01-.03-.01-.01-.1-.04-.2-.06-.32-.05.09-.07.18-.07.24-.03.12-.06.25-.07.34-.03.13-.08.26-.07.37-.04.41.07.82.24,1.19.22.54.56.96,1.01,1.3.51.37,1.1.63,1.67.87,0,.01-.03.04-.05.06.32.16.93.19,1.27.17.69-.04,1.32-.24,1.95-.5.09-.03.16-.05.24-.1.71-.44,1.24-1.03,1.4-1.87.1-.47.15-.94.07-1.42-.09-.45-.15-.91-.4-1.3-.02-.04-.03-.06-.04-.08-.13-.17-.23-.33-.37-.48-.1-.12-.22-.24-.34-.33-.25-.19-.51-.36-.77-.51-.38-.23-.74-.46-1.07-.72-.13-.09-.18-.21-.15-.37.03-.16.13-.24.3-.27.14-.03.3-.05.47-.08.22-.05.42.01.6.15.33.28.68.54.86.94.06.1.14.19.23.29.06.07.12.06.2,0,.11-.05.17-.02.15.1,0,.16-.01.3-.03.45-.01.12.04.2.16.31-.02-.25-.08-.49-.02-.7.03.01.06,0,.09.02.25.06.47.14.69-.04.04-.03.12-.03.17-.05.03.04.06.07.1.12.01-.17,0-.3.04-.41.04-.15.04-.25.03-.38-.02-.09,0-.16.12-.2.01.1.04.19.04.28,0,.13-.03.23-.03.35-.02.14.02.26.03.39.01,0,.03.01.03.01.02-.06.05-.13.05-.19,0-.14.01-.3,0-.42.02-.28-.07-.55-.19-.8-.21-.42-.46-.83-.76-1.18ZM78.04,256.07h-.01s.02-.06.03-.09h.01s-.02.06-.03.09ZM80.24,254.37s0-.01,0-.02c.03,0,.07,0,.09-.02,0,0,0,.02,0,.03-.03,0-.05,0-.08,0ZM81.1,254.33s-.05,0-.08,0t.01-.03s.05-.01.07-.02c0,.02,0,.03,0,.05ZM82.3,254.65c-.27-.1-.53-.19-.81-.29t0-.03c.28.1.55.2.83.3t-.02.02ZM82.6,254.86v-.03c.08.06.15.1.21.15-.06-.04-.14-.08-.21-.12ZM83.3,255.44c-.07-.07-.15-.16-.23-.24.09.06.17.14.26.2,0,.01-.01.03-.03.04ZM83.95,256.27s0-.03,0-.06c0,.02.02.04.03.06,0,.01-.02,0-.03,0ZM84.31,256.94c-.03-.06-.07-.12-.1-.18h.02s.07.11.1.17c0,0,0,.01-.02,0Z"/><path class="cls-1" d="M99.78,259.66c-.11-.24-.3-.27-.53-.28-.16,0-.32.05-.44-.02-.29-.12-.53.12-.81.07-.01,0-.05.02-.05.03-.12.14-.28.27-.38.43-.28.39-.53.79-.79,1.19-.37.57-.72,1.16-1.09,1.73-.36.55-.74,1.11-1.12,1.66-.05.08-.12.14-.2.2-.03.1-.03.21-.17.27-.01-.07-.02-.11-.04-.16-.02-.3-.04-.61-.07-.91-.03-.24-.1-.48-.1-.74-.03-.53-.03-1.07-.05-1.59-.03-.59,0-1.16.04-1.75.02-.53-.08-.77-.1-1.3,0-.28-.12-.38-.38-.46-.19-.05-.36-.12-.52-.19-.22-.1-.44-.15-.68-.12l-.52.06s-.1.02-.14.06c-.1.1-.16-.15-.3-.15-.14.01-.16.04-.15.19,0,.17.03.33.03.5,0,.12.03.24-.09.33-.04.02-.04.11-.06.17-.01.44-.05.89-.05,1.34,0,.64,0,1.29,0,1.93.01.45.04.9.09,1.34.03.38.11.76.11,1.13,0,.68.14,1.34.24,2,.04.33.15.67.22.99.02.06.05.12.08.17.01,0,.03,0,.05-.02-.01-.14-.03-.3-.06-.44t.03,0c.06.2.12.4.17.61-.06.02-.09,0-.13.02-.02.16-.05.31-.05.48.22.1.43.18.64.28.1.04.18.09.3.09.25,0,.48.02.72.07.31.05.61.08.92.05.08-.01.17-.05.25-.09.05-.03.1-.08.17-.11.28-.16.62-.54.76-.86.01-.04.06-.06.1-.08.12-.25.25-.51.48-.71h0c.05-.08.11-.17.16-.27l.7-.98c.17-.25.34-.52.51-.77.23-.33.46-.64.68-.97.61-.94,1.22-1.88,1.83-2.84.17-.27.34-.56.5-.85.11-.22.03-.33-.21-.39-.2-.06-.41-.13-.49-.32ZM91.32,264.05c0-.06,0-.12-.02-.19-.04-.27-.09-.56-.15-.85.01,0,.05,0,.06,0,.02.28.11.56.09.85.02.06.03.12.05.18-.01,0-.03,0-.03,0Z"/><path class="cls-1" d="M109.02,261.06c-.32-.06-.63-.21-.99-.15-.2.03-.43.03-.64.06-.17.02-.22.06-.24.22-.04.16-.06.29-.08.44-.08.44-.18.86-.2,1.3-.03.88,0,1.74-.16,2.61-.08.46-.11.9-.19,1.34-.09.56-.22,1.13-.33,1.7-.04.27-.09.53-.14.81-.06.34-.14.67-.2,1.01-.01.09-.03.18-.04.28,0,.16.04.34.17.42.18.1.4.22.61.24.25,0,.52.07.78.1.19.01.39.04.59.08.35.11.69-.11.73-.48.04-.28.08-.58.12-.87.08-.55.19-1.1.28-1.65.05-.23.08-.45.13-.69.05-.32.11-.65.15-.96.06-.43.11-.87.15-1.29.02-.25.04-.51.06-.74.03-.39.02-.77.04-1.12.05-.59.14-1.18.29-1.75.06-.25-.02-.42-.22-.6-.2-.18-.43-.24-.68-.29Z"/><path class="cls-1" d="M122.05,270.34c-.27-.03-.53-.07-.8-.11-.4-.04-.8-.08-1.2-.13-.24-.03-.47-.06-.68-.08-.03-.06-.03-.08-.03-.09.03-.58.08-1.15.13-1.73.02-.39.06-.8.11-1.19.03-.31.08-.62.05-.94-.01-.33,0-.67.03-1,.04-.42.11-.83.15-1.26.03-.27.05-.56.06-.85,0-.12-.03-.24-.06-.33-.01-.05-.05-.11-.08-.11-.13,0-.19-.12-.27-.18-.1-.08-.21-.16-.35-.19-.1-.02-.18-.01-.25-.07-.04-.03-.12-.05-.16-.04-.27.07-.54-.2-.82-.06-.01,0-.04-.02-.07-.02-.09-.02-.18-.04-.27-.05-.15-.02-.19,0-.2.14-.05.31-.08.59-.11.89-.03.28-.05.56-.08.83-.03.34-.08.7-.12,1.04-.02.25,0,.48,0,.73,0,.39-.06.77-.11,1.16-.08.8-.14,1.61-.18,2.41-.03.54-.05,1.06-.05,1.6-.01.21,0,.42,0,.63,0,.14.01.27-.09.34.11.2.22.4.28.6.07.15.15.22.3.23.06.02.13,0,.18.01.36,0,.7,0,1.04.02.43.02.85.06,1.26.1.33.03.67,0,1.01.03.31.05.65.08.96.12.1.02.22.01.26-.09.1-.19.17-.29.25-.49.05-.13.02-.31.07-.46.04-.15,0-.27,0-.4.01-.24.06-.44.08-.67.03-.21-.06-.3-.27-.33Z"/><path class="cls-1" d="M135.24,270.59c0-.21-.08-.29-.29-.3-.27,0-.54-.03-.81-.04-.4,0-.8,0-1.21-.02-.24,0-.48-.02-.69-.03-.03-.06-.03-.07-.03-.09-.02-.58-.02-1.15-.02-1.73-.01-.39,0-.8.01-1.19,0-.31.03-.63-.03-.94-.04-.33-.05-.67-.06-1,0-.42.04-.84.04-1.27,0-.27,0-.57-.01-.85,0-.12-.05-.24-.08-.33-.02-.04-.06-.1-.09-.1-.13,0-.2-.1-.29-.16-.11-.07-.23-.14-.36-.15-.1-.01-.18,0-.26-.05-.05-.03-.12-.04-.16-.02-.27.1-.56-.15-.82,0-.02,0-.05-.01-.08-.01-.09-.01-.18-.03-.27-.02-.15-.01-.19.02-.19.15-.02.31-.03.6-.03.9,0,.28,0,.57,0,.83,0,.34-.02.7-.03,1.04,0,.25.04.48.07.73.03.39,0,.77-.01,1.16,0,.81,0,1.61.03,2.41.02.54.05,1.06.09,1.59,0,.21.03.42.05.63.02.13.04.27-.06.34.12.19.25.38.33.57.08.15.17.2.32.2.06.01.13,0,.18,0,.36-.02.7-.06,1.04-.07.43-.01.85-.01,1.27,0,.33,0,.67-.06,1.01-.06.31.02.66.03.97.03.1.01.22,0,.25-.11.08-.2.14-.3.21-.51.04-.14,0-.31.03-.46.03-.15-.02-.27-.03-.4,0-.24.02-.45.03-.67Z"/><path class="cls-1" d="M149.1,261.01c-.46.03-.94.06-1.42.07-.43,0-.88.2-1.32.09-.03-.01-.04,0-.07,0-.38.05-.78.04-1.17.13-.1.03-.2.06-.32.07-.71.07-1.42.16-2.12.25-.27.03-.51.1-.79.13-.26.05-.33.1-.36.39,0,.09.02.18.02.28.01.09.02.16.02.25,0,.35,0,.68.2.98.02.03.03.1.06.16.04.1.06.23.13.31.09.1.12.2.12.32.02.3.03.57.03.85,0,.12-.03.27-.04.41,0,.08,0,.17,0,.24.04.28.07.58.14.88.04.2.04.41.18.59.04.06.03.13.04.2.05.55.12,1.1.18,1.64.04.43.09.86.27,1.27.04.07.04.16.05.25.06.37.11.77.16,1.15,0,.07,0,.15.1.18.27.09.53.14.8.05.04,0,.09-.01.14.01.14.07.3.08.38-.08.09.02.19.08.22.05.11-.12.26-.09.39-.14.03.03.05.07.09.1.17-.08.31-.19.29-.4,0-.03.08-.08.12-.11.07-.02.16-.02.22-.01.51-.03,1.02-.04,1.52-.09.41-.04.83-.1,1.25-.19.04,0,.11-.06.15-.11.13-.15-.01-.33.07-.49.01-.02-.08-.08-.08-.13,0-.23.02-.42.04-.65,0-.05,0-.11-.03-.13-.13-.12-.1-.29-.04-.47-.2-.02-.07-.17-.1-.27-.1,0-.21,0-.29,0-.02-.07-.05-.13-.07-.17-.25.06-.46.13-.69.16-.61.06-1.22.12-1.83.17-.16.02-.3.02-.45.03-.12.02-.19-.05-.2-.17-.09-.47-.15-.94-.16-1.41,0-.03,0-.05,0-.05.25-.03.47-.06.71-.09.46-.04.92-.08,1.38-.14.21-.03.29-.17.25-.38,0-.04,0-.1.01-.15.01-.03.04-.08.02-.08-.09-.08-.05-.17-.03-.27.02-.08,0-.18.01-.27.09-.03.14-.06.24-.11-.09-.03-.14-.04-.2-.06,0-.08.01-.15,0-.21.16-.08.33-.01.49-.12-.09-.02-.14-.03-.18-.04-.11-.02-.21-.02-.3-.02-.09,0-.14-.06-.12-.15.08-.08.24.03.33-.12-.09-.02-.17-.02-.26-.03.13-.05.25-.08.37-.08s.23.02.34-.03c0-.03,0-.05,0-.06-.23,0-.47,0-.71-.02-.02-.18.16-.12.27-.23-.11-.02-.15-.03-.21-.02-.54.02-1.08-.01-1.6.14-.35.1-.71-.02-1.06.04-.09.01-.13-.06-.15-.13-.06-.38-.1-.76-.04-1.12.04-.02.07-.04.1-.03.37-.03.76-.08,1.13-.1.31-.01.64-.04.94-.14.25-.05.48-.09.72-.12.22-.03.43-.02.65-.05.19-.01.28-.07.31-.27.01-.12.04-.26.02-.35-.03-.15.05-.2.15-.24-.02-.03-.02-.04-.04-.04-.08-.03-.13-.07-.09-.15.02-.05.08-.1.14-.11.07-.02.15-.02.23-.05.09-.01.18,0,.29-.1-.24.02-.43.03-.61.02.03-.26.07-.31.28-.31.14,0,.27.03.39-.09-.14-.01-.27-.03-.41-.04.03-.02.04-.04.1-.07-.2,0-.35-.02-.5-.03t0-.03s.07-.05.11-.07c0-.05,0-.07,0-.13.16-.02.36-.05.55-.07,0-.02.01-.02.01-.03-.12-.02-.24-.03-.36-.03,0-.02.01-.03,0-.05.18-.02.35-.05.52-.07t0-.03c-.17,0-.33,0-.51-.01,0-.01,0-.03,0-.03.19-.02.38-.05.61-.08-.06-.02-.08-.03-.11-.03Z"/><path class="cls-1" d="M159.61,267.82c-.11-.24-.34-.36-.53-.5-.05-.02-.13-.02-.19-.02-.33.04-.64.12-.93.29-.4.25-.57.63-.58,1.07-.02.35.22.58.47.77.18.13.36.18.57.15.07-.02.13-.01.24-.02-.02.11-.04.18-.05.26-.04.19-.07.38-.11.57-.01.09-.02.2.1.25.09.07.19.03.27-.01.04-.02.09-.08.12-.07.24,0,.3-.19.36-.37.08-.26.18-.52.26-.79.08-.34.16-.68.22-1.01.02-.07,0-.14-.03-.19-.06-.14-.13-.26-.2-.38Z"/><path class="cls-1" d="M183.62,256.1c-.18-.33-.43-.58-.7-.85-.31-.26-.57-.59-.91-.85-.5-.38-1.05-.76-1.6-1.07-.24-.18-.55-.25-.83-.33-.21-.08-.45-.13-.67-.17-.24-.08-.49-.08-.73.03-.24.09-.49.19-.74.27-.19.06-.4.14-.59.17-.35,0-.63.15-.9.32-.28.17-.5.44-.74.69-.42.45-.71.93-.92,1.51-.09.23-.15.44-.26.65-.1.16-.13.32-.14.5-.03.17-.02.36-.03.51-.07.65.07,1.24.29,1.82.03.08.08.16.1.25.07.43.31.84.52,1.22.33.65.83,1.23,1.42,1.7.29.25.59.49.92.67.35.2.76.28,1.17.33.38.04.79.05,1.18-.06.26-.08.51-.18.76-.26,0,.01,0,.06.01.07.14-.05.27-.14.38-.13.2-.02.35-.09.5-.2.26-.18.55-.36.83-.53.37-.24.68-.55.96-.9.18-.2.34-.4.47-.63.11-.14.18-.31.28-.48.35-.65.45-1.34.46-2.07-.02-.26-.05-.51-.07-.74,0-.53-.19-.98-.43-1.43ZM181.48,258.89c-.03.06-.06.1-.08.16-.11.28-.22.55-.36.81-.17.35-.49.54-.8.74-.09.05-.23.03-.32.05-.32.03-.64.07-.97.09-.34.03-.66-.06-.91-.33-.19-.23-.39-.44-.58-.67-.13-.16-.21-.32-.28-.5-.16-.4-.28-.77-.42-1.15,0-.06-.02-.14,0-.19.01-.26.03-.51.04-.77.04-.3.18-.57.36-.81.12-.16.32-.24.44-.3.39-.15.72-.3,1.04-.41.11-.04.26-.08.37-.05.21.08.41.16.59.28.21.13.39.31.58.46.33.27.6.6.81.97.16.29.32.58.48.85.13.25.11.5.02.76Z"/><path class="cls-1" d="M199.38,253.09c-.13-.27-.24-.55-.37-.83-.22-.44-.45-.88-.67-1.3-.18-.31-.37-.63-.52-.94-.22-.46-.44-.92-.67-1.39-.12-.26-.31-.51-.45-.78-.24-.45-.44-.9-.68-1.34-.18-.38-.38-.73-.57-1.07-.06-.12-.14-.21-.21-.33-.1-.13-.22-.19-.39-.13-.11.04-.22.06-.32.09-.19.07-.37.13-.55.17-.07.02-.15.04-.18.1-.23.26-.6.37-.8.69-.02.03-.06.05-.1.07.05.12.08.24.13.34.23.47.49.92.71,1.38.22.45.43.9.63,1.35.06.12.04.15-.09.24-.04.02-.08.04-.12.06-.59.29-1.18.58-1.78.86-.01,0-.03,0-.07,0-.1-.38-.38-.68-.63-.97-.06-.07-.11-.14-.17-.2-.24-.29-.42-.6-.55-.97-.06-.17-.17-.35-.29-.51-.1-.16-.25-.25-.45-.25-.79.03-1.37.41-1.83,1.02-.11.18-.13.36-.01.55.09.17.19.37.24.55.1.42.36.75.64,1.08.21.26.4.53.6.81.1.15.06.19-.04.31-.03.05-.06.08-.11.11-.21.15-.2.36-.1.63,0,.03.02.07.06.1.07.13.11.27.12.41,0,.11.06.22.13.3.15.19.34.38.5.56.08.08.15.16.26.15.14-.02.19.03.23.15.05.09.09.17.13.27.09.29.25.54.46.77.03.03.08.08.1.13.19.32.38.65.58.96.01.03.04.05.05.07.08.12.17.26.25.37.03.05.03.12.08.15.17.13.24.29.3.48.05.16.19.22.29.27.12.07.2,0,.29-.05.04-.02.1-.04.16-.05.07-.02.18-.04.27-.09.25-.17.49-.35.73-.52.18-.11.34-.23.52-.33.27-.16.36-.43.17-.7-.12-.16-.25-.34-.35-.51-.28-.43-.55-.84-.8-1.26-.21-.34-.44-.7-.63-1.05-.12-.19-.1-.22.08-.33.03-.01.05-.03.08-.04.63-.32,1.25-.61,1.89-.93.03-.02.05,0,.09-.02.04.05.08.09.12.16.29.55.58,1.1.87,1.65.06.1.1.22.13.32.16.34.26.67.49.96.1.13.16.17.31.17-.03-.03-.05-.06-.11-.14.3.13.56.03.76-.06.24-.11.44-.28.68-.38.25-.08.39-.36.67-.36.01,0,.04-.05.07-.09.03-.05.06-.11.1-.17.07-.12.08-.21-.05-.29-.15-.09-.25-.24-.32-.42ZM193.43,246.95c-.12-.2-.23-.43-.33-.65.3.4.46.87.68,1.31-.2-.18-.22-.44-.35-.66ZM194.49,249.21c-.07-.2-.16-.4-.24-.58-.14-.26-.27-.51-.41-.78.03-.01.04-.02.07-.03.11.28.23.54.35.81.09.17.2.37.29.55-.01,0-.03.01-.05.03ZM196.58,253.19c-.25-.47-.51-.93-.76-1.4.6.88,1.03,1.85,1.45,2.83-.29-.45-.43-.97-.69-1.43Z"/><path class="cls-1" d="M208.47,246.91c-.3-.46-.59-.95-.88-1.42-.12-.21-.24-.4-.36-.6-.18-.27-.35-.56-.52-.82-.24-.36-.5-.73-.74-1.07-.15-.2-.3-.41-.45-.6-.24-.31-.49-.59-.71-.87-.35-.48-.68-.98-.94-1.51-.11-.23-.29-.31-.56-.31s-.48.1-.7.23c-.28.17-.61.26-.84.54-.13.16-.3.3-.44.47-.11.13-.12.19-.04.33.08.15.15.26.23.38.23.38.43.77.71,1.1.56.69,1.15,1.31,1.61,2.07.24.39.51.75.74,1.13.3.48.58.99.87,1.49.15.22.28.46.42.7.17.29.34.6.51.89.05.07.1.15.16.24.1.13.25.23.4.2.2-.05.45-.1.62-.23.2-.16.44-.29.65-.45.15-.12.32-.23.5-.33.33-.15.45-.54.23-.85-.16-.24-.32-.49-.48-.73Z"/><path class="cls-1" d="M221.03,234.4c-.16-.5-.48-.88-.84-1.24-.27-.26-.59-.42-.92-.6-.38-.16-.72-.4-1.12-.54-.59-.21-1.23-.41-1.85-.54-.29-.09-.6-.07-.89-.06-.22-.01-.47.01-.69.04-.25,0-.5.07-.68.24-.2.16-.41.33-.62.48-.16.11-.33.25-.51.34-.33.11-.56.33-.76.57-.22.25-.35.57-.5.88-.26.55-.4,1.1-.42,1.72-.02.24,0,.46-.05.69-.04.19-.03.35.02.52.02.17.09.35.13.49.13.64.44,1.16.83,1.65.06.07.12.13.17.21.2.39.55.71.87,1.01.52.52,1.16.92,1.86,1.2.35.16.71.29,1.07.36.39.08.81.04,1.21-.04.38-.07.76-.19,1.1-.41.22-.16.43-.33.65-.48,0,.01.03.06.03.07.12-.09.21-.21.32-.24.19-.07.31-.19.42-.34.2-.25.41-.51.63-.76.28-.34.48-.73.64-1.15.11-.24.2-.49.26-.75.06-.16.08-.35.12-.54.14-.73.03-1.42-.19-2.11-.1-.24-.2-.47-.29-.69ZM218.95,236.65c-.02.3-.04.59-.1.88-.05.39-.3.67-.54.95-.07.08-.21.09-.29.14-.3.13-.59.27-.9.38-.31.14-.65.14-.97-.04-.25-.16-.51-.3-.76-.46-.17-.11-.29-.24-.41-.39-.27-.34-.5-.65-.74-.97-.03-.06-.06-.12-.06-.18-.07-.25-.13-.49-.2-.74-.05-.3,0-.59.1-.88.06-.18.24-.32.33-.42.32-.26.59-.5.87-.7.09-.07.22-.16.34-.15.22.01.44.03.65.09.24.06.47.18.69.27.4.16.75.39,1.06.68.24.23.48.46.71.67.2.2.26.44.25.72,0,.06-.02.11-.03.18Z"/><path class="cls-1" d="M126.02,169.37c-.09-.11-.16-.23-.25-.34-.52-.57-1.14-1.02-1.82-1.35-1.3,2.02-3.55,3.35-6.09,3.35-.11,0-.21,0-.32,0-.12,0-.24-.04-.36-.05-.27.85-.69,1.64-1.23,2.32.35-.04.7-.07,1.06-.06,1.94.08,3.73.92,5.04,2.35.19.21.34.45.51.68-.03-.32-.07-.65-.06-.98.08-1.94.92-3.73,2.35-5.04.36-.33.75-.62,1.17-.87Z"/><path class="cls-1" d="M115.13,163.42c.17.15.35.29.51.46.84.91,1.38,2.01,1.67,3.18.05.21.12.42.16.63.03.23.03.47.04.7.01.24.05.47.04.72-.01.25-.07.49-.1.73.05,0,.1.02.16.02,2.15.07,4.08-.96,5.24-2.59.11-.16.21-.34.31-.51.1-.17.2-.34.28-.52.24-.54.39-1.13.47-1.75-.93-1.31-1.42-2.87-1.35-4.5,0-.03.01-.06.01-.09-.07-.08-.12-.18-.19-.26-.88-.96-2.02-1.58-3.26-1.84-.37,1.24-1.05,2.37-2.03,3.27-.56.51-1.2.9-1.86,1.21-.2.09-.4.19-.6.26-.14.05-.3.08-.44.13.14.09.29.15.42.25.2.15.37.33.55.5Z"/><path class="cls-1" d="M108.4,135.16c0-.22-.04-.43-.03-.65.03-.61.15-1.2.32-1.77-.14-.07-.25-.16-.39-.23-.17.19-.32.4-.52.58-1.35,1.24-3.08,1.91-4.9,1.91-.11,0-.22,0-.33,0-1.15-.05-2.22-.39-3.2-.93-.49.43-1.03.79-1.62,1.08.92,2.02,2.9,3.47,5.26,3.58.4.02.78-.01,1.16-.07.9-1.67,2.42-2.93,4.25-3.49Z"/><path class="cls-1" d="M97.6,120.34c.44.48.96.86,1.51,1.17.54-.33,1.14-.56,1.77-.74.19-.05.37-.11.57-.15.19-.04.39-.07.59-.09.38-.04.76-.08,1.16-.07.91.04,1.77.27,2.56.61.16-.12.32-.22.47-.35,1.2-1.1,1.9-2.6,1.98-4.23.03-.69-.08-1.37-.27-2.01-.37-.46-.68-.96-.93-1.5-1.25.99-2.8,1.61-4.5,1.61-.11,0-.21,0-.32,0-.8-.04-1.54-.23-2.25-.5-.24-.09-.48-.18-.71-.3-.27-.14-.52-.29-.77-.46-.38-.26-.72-.54-1.05-.86,0,.12.03.24.02.37-.06,1.47-.57,2.82-1.37,3.93.12,1.33.64,2.58,1.55,3.59Z"/><path class="cls-1" d="M121.64,143.29c-1.2-.33-2.27-.96-3.14-1.8-.24.1-.5.18-.75.26.01.22.05.43.04.66-.07,1.63-.7,3.1-1.67,4.27-.19.23-.37.47-.59.67-.18.17-.39.31-.59.46-.4.31-.83.58-1.29.8.44.09.85.23,1.25.39.19.08.38.16.57.25.2.1.38.22.56.34,1.36.87,2.41,2.14,2.96,3.67.53-.09,1.03-.27,1.51-.5-.89-1.29-1.35-2.81-1.28-4.41.09-2.03,1.01-3.82,2.41-5.08Z"/><path class="cls-1" d="M131.66,131.5c.53-.49,1.13-.86,1.76-1.16.01-.16.05-.32.07-.48-.82-.4-1.57-.94-2.2-1.63-.57-.62-1-1.34-1.32-2.1-1.24.98-2.79,1.58-4.47,1.58-.09,0-.17,0-.26,0-.3.42-.63.82-1.02,1.18-.07.06-.15.11-.22.16,2.81.18,5.13,1.95,6.18,4.39.38-.71.86-1.37,1.47-1.93Z"/><path class="cls-1" d="M131.42,94.82c-.11,0-.22,0-.33,0-.09,0-.17-.03-.26-.04-.33-.03-.66-.07-.98-.14-.04.12-.08.23-.12.35.07.27.15.54.25.8.48,1.16,1.3,2.13,2.35,2.8-.02-.27-.06-.53-.05-.8.05-1.16.4-2.25.95-3.23-.59.15-1.19.26-1.82.26Z"/><path class="cls-1" d="M150.62,107.26c1.19-1.98,3.27-3.32,5.66-3.5.19-.55.33-1.12.35-1.72.07-1.54-.47-2.97-1.37-4.08-1.31,1.09-2.92,1.7-4.62,1.7-.11,0-.22,0-.33,0-1.24-.05-2.41-.45-3.44-1.08-.03.01-.06.03-.09.05-.13,1.79-.9,3.38-2.07,4.58,1.83.15,3.51.95,4.76,2.31.48.53.85,1.13,1.15,1.76Z"/><path class="cls-1" d="M108.54,136.34c-.26.09-.51.2-.76.33-.67.34-1.27.8-1.77,1.36-.26.29-.49.6-.69.93-.14.23-.28.46-.38.71-.29.66-.47,1.38-.51,2.15-.07,1.63.5,3.19,1.6,4.39,1.1,1.2,2.6,1.9,4.23,1.98.15,0,.3-.02.45-.03.2,0,.39,0,.58-.03.19-.02.38-.07.57-.11,1.03-.23,1.98-.7,2.78-1.42.12-.11.2-.23.31-.35.21-.23.41-.46.59-.71.24-.34.43-.71.59-1.09.27-.65.45-1.35.48-2.08,0-.12-.02-.23-.02-.35-.15.02-.3.03-.44.04-.18.01-.35.05-.53.05-.02,0-.04,0-.06,0-.09,0-.18,0-.27,0-.11,0-.21-.04-.32-.05-.05,0-.1-.02-.15-.02-.29-.03-.57-.06-.85-.12-.23-.05-.45-.14-.68-.22-1.15-.39-2.2-1.03-3.05-1.95-.66-.72-1.16-1.55-1.48-2.45-.08-.22-.11-.45-.17-.67-.02-.09-.05-.18-.07-.28Z"/><path class="cls-1" d="M129.45,135.53c.02-.13.03-.27.06-.4-.52-2.71-2.84-4.82-5.71-4.95-.09,0-.18,0-.27,0-.33,0-.64.04-.96.09-.2.03-.39.08-.58.13-.18.05-.35.1-.53.16.71.97,1.19,2.08,1.35,3.27.06.43.09.87.07,1.31-.09,2.14-1.13,4.01-2.67,5.27-.18.14-.35.3-.54.42-.03.02-.05.05-.08.07.75.64,1.65,1.1,2.65,1.32.25.05.5.09.76.11.05-.03.1-.05.15-.07,1.09-.57,2.32-.9,3.64-.84.3-.19.59-.4.86-.64.85-.78,1.43-1.76,1.74-2.84-.06-.4-.08-.82-.07-1.24,0-.06-.01-.11,0-.16,0-.14.05-.28.06-.42.02-.2.05-.39.08-.58Z"/><path class="cls-1" d="M97.91,107.95c-.18.08-.37.13-.55.19-.19.06-.37.12-.56.16-.1.02-.2.07-.31.09.15.83.48,1.61.93,2.29.08.12.18.24.27.36.03.04.05.07.08.11.12.15.25.3.38.44.15.15.3.29.47.42.25.21.51.38.79.55.83.49,1.77.81,2.8.86,1.6.06,3.07-.51,4.2-1.47.05-.04.11-.07.15-.11-.06-.23-.14-.46-.18-.7-.04-.26-.04-.54-.06-.81-.01-.23-.05-.46-.04-.7.06-1.43.54-2.77,1.36-3.91.02-.08.05-.15.08-.22-1.1-.39-2.12-1.02-2.93-1.91-.62-.67-1.08-1.44-1.4-2.27-.22-.03-.43-.08-.65-.09-.14,0-.27.02-.4.02,0,.11.02.22.02.33-.08,1.94-.92,3.73-2.35,5.04-.63.57-1.34,1.01-2.11,1.33Z"/><path class="cls-1" d="M129.6,124.95c-.11-.48-.17-.97-.18-1.47,0-.16-.03-.32-.03-.49,0-.03.01-.07.01-.1,0-.05.02-.09.02-.14-.07,0-.13.02-.19.02-.11,0-.22,0-.33,0-.64-.03-1.24-.16-1.82-.35-.22-.07-.43-.14-.64-.23.02.13.04.25.06.38.03.19.02.39.03.59.01.2.04.4.03.61,0,.02,0,.05,0,.07-.04.93-.26,1.83-.64,2.66,1.4-.1,2.68-.65,3.66-1.54Z"/><path class="cls-1" d="M109.82,129.78c-.06.2-.13.39-.2.58-.02.04-.03.08-.04.12-.06.15-.11.3-.18.44-.06.12-.14.23-.21.35-.06.1-.12.21-.18.31.03.02.06.04.1.06.04-.07.09-.14.12-.21.08-.15.17-.3.26-.44.05-.09.1-.18.16-.26.05-.08.1-.16.15-.24.09-.12.21-.22.3-.34.03-.03.06-.07.09-.1.17-.2.33-.41.53-.59.82-.75,1.79-1.27,2.83-1.58-1.02-1.35-1.57-2.98-1.49-4.69.02-.45.09-.88.19-1.31-.59-.47-1.1-1.04-1.52-1.67-1.1.21-2.12.72-2.97,1.49-.12.11-.22.25-.33.37,1.74,1.4,2.83,3.57,2.73,5.97-.02.55-.13,1.09-.27,1.61-.01.04-.03.08-.04.12Z"/><path class="cls-1" d="M126.36,92.74c-.7-.68-1.26-1.49-1.64-2.4-1.11.65-2.36,1.01-3.66,1.01-.11,0-.22,0-.33,0-1.24-.05-2.41-.45-3.44-1.08-.26.64-.44,1.32-.48,2.05-.07,1.51.44,2.94,1.38,4.1,1.32-1.02,2.97-1.63,4.74-1.55.43.02.85.09,1.26.18,1.21.27,2.3.85,3.19,1.64.48-.52.87-1.11,1.14-1.75.09-.21.17-.43.23-.66-.11-.04-.23-.07-.34-.12-.77-.35-1.45-.84-2.04-1.42Z"/><path class="cls-1" d="M116.52,102.14c0,.41.04.82.12,1.22,1.85.87,3.24,2.5,3.84,4.47.06.02.11.04.17.06.2.07.39.14.59.18.19.04.39.06.59.08.17.02.33.06.49.07,1.05.04,2.05-.2,2.96-.65.33-1.41,1.07-2.68,2.16-3.68.11-.1.25-.18.37-.28.26-.21.51-.42.79-.59,0-.04.01-.08.02-.12.02-.17.07-.34.07-.51.06-1.48-.43-2.85-1.27-3.95-.04-.05-.07-.09-.1-.14-.12-.15-.25-.3-.38-.44-.14-.14-.29-.27-.44-.4-.95-.8-2.13-1.31-3.45-1.41-.06,0-.12-.02-.18-.03-1.45-.05-2.79.42-3.87,1.21-.16.12-.33.23-.47.36-.14.13-.27.28-.4.42-.26.29-.5.59-.7.93,0,.01,0,.02,0,.04-.03.71-.19,1.39-.42,2.04-.06.18-.12.37-.19.55-.08.18-.18.35-.27.52,0,.02-.02.03-.03.04Z"/><path class="cls-1" d="M152.48,115.23c.29-.39.61-.76.98-1.1,1.34-1.23,3.05-1.88,4.86-1.88-.21-.18-.43-.35-.61-.55-1.25-1.37-1.9-3.12-1.89-4.97,0-.09-.02-.17-.01-.26.01-.24.07-.47.1-.71.04-.28.07-.56.14-.82-.12.02-.23.03-.35.05-1.69.32-3.12,1.34-4.01,2.75-.13.21-.27.42-.38.65-.06.13-.09.26-.14.39.02.07.04.13.05.2.11.57.18,1.15.16,1.75-.03.67-.18,1.31-.38,1.92.26.89.69,1.73,1.34,2.44.05.05.1.09.15.13Z"/><path class="cls-1" d="M131.68,171.12c-.17-.11-.35-.22-.51-.34-.17-.13-.33-.29-.49-.44-.15-.14-.31-.25-.45-.41-.12-.13-.21-.29-.32-.43-.05,0-.1,0-.15,0-.7,0-1.39.13-2.04.36-.18.07-.36.15-.54.23-.17.08-.35.16-.52.26-.36.21-.71.46-1.02.75-1.2,1.1-1.9,2.6-1.98,4.23-.01.27.02.52.04.78.9-.34,1.87-.5,2.86-.45.08,0,.15.03.23.03.2.02.4.05.59.08.2.03.4.04.59.08.37.09.72.23,1.07.37.18.08.36.16.54.25.18.09.35.2.52.31.54.34,1.06.73,1.51,1.22.71.77,1.21,1.67,1.53,2.64.25-.17.51-.34.74-.55,1.2-1.1,1.9-2.6,1.98-4.23.06-1.35-.34-2.61-1.04-3.65-1.13-.12-2.2-.5-3.14-1.1Z"/><path class="cls-1" d="M119.42,185.37c-.03-.08-.04-.16-.06-.24-.12-.39-.23-.78-.28-1.2-.04-.31-.05-.62-.05-.94,0-.13-.03-.25-.02-.38.04-.84.24-1.64.55-2.4.08-.19.15-.37.24-.55.09-.19.21-.36.32-.54.35-.56.74-1.09,1.24-1.55.15-.14.32-.23.47-.36-.19-.29-.39-.58-.63-.84-1.1-1.2-2.6-1.9-4.23-1.97-.09,0-.18,0-.28,0-.45,0-.89.06-1.32.16-.19.04-.38.1-.56.16-.05.02-.11.03-.16.05-.13.05-.26.1-.38.16-.07.03-.14.07-.21.11-.2.1-.41.19-.6.31-.31.19-.6.41-.87.67-1.2,1.1-1.9,2.6-1.98,4.23-.15,3.36,2.47,6.21,5.83,6.36.79.03,1.55-.1,2.26-.34.22-.32.47-.6.74-.89Z"/><path class="cls-1" d="M138.59,112.96s0,0,0,0c.03.07.06.14.1.21.05.11.09.22.16.33.22.37.47.72.76,1.04,1.1,1.2,2.6,1.9,4.23,1.98,1.31.05,2.54-.32,3.57-.99.17-.11.32-.23.47-.35.15-.12.31-.24.45-.38.63-.61,1.12-1.36,1.44-2.19.2-.52.34-1.08.39-1.66,0-.09.03-.17.04-.26,0-.09-.01-.17-.01-.26,0-.48-.06-.95-.17-1.41-.02-.09-.04-.18-.07-.27-.03-.11-.05-.23-.09-.34-.08-.22-.18-.42-.29-.63-.26-.53-.56-1.03-.97-1.48-.94-1.03-2.18-1.66-3.53-1.87-.23-.04-.46-.09-.69-.1,0,0,0,0,0,0-.09,0-.18,0-.28,0-.12,0-.23.03-.35.03-.21.01-.42.02-.63.06-.69.39-1.45.69-2.25.84-.31.2-.61.42-.88.67-.06.05-.1.12-.16.17-.16.16-.31.33-.46.51-.05.06-.12.12-.17.19.31.86.46,1.79.42,2.73,0,.02,0,.04,0,.06-.04.88-.25,1.72-.58,2.49-.13.31-.29.6-.46.89Z"/><path class="cls-1" d="M150.92,89.94c.05.19.11.37.15.57.03.17.06.34.08.52.05.4.09.81.07,1.22-.04.8-.23,1.56-.5,2.27-.08.2-.15.4-.24.6-.1.21-.23.41-.35.61-.45.72-1.01,1.35-1.67,1.87-.14.11-.26.22-.41.32.09.04.2.06.29.1.64.26,1.32.43,2.03.46,1.49.06,2.92-.43,4.08-1.36.1-.08.22-.15.31-.23.05-.05.09-.1.13-.15.14-.14.26-.28.39-.43.25-.3.47-.62.66-.96.46-.82.75-1.73.79-2.7.03-.58-.06-1.14-.19-1.68-.14-.57-.34-1.11-.62-1.6-.03-.05-.04-.1-.07-.15-.01-.02-.02-.03-.03-.05-.06-.1-.15-.19-.21-.28-.12-.17-.25-.35-.39-.51-.31-.36-.66-.68-1.05-.95-.93-.66-2.04-1.08-3.26-1.13-.09,0-.18,0-.27,0-.63,0-1.22.12-1.79.3.84.77,1.52,1.71,1.93,2.8.07.18.1.38.15.56Z"/><path class="cls-1" d="M158.38,126.77c-.11,0-.22,0-.33,0-.65-.03-1.25-.17-1.84-.35-.37.63-.8,1.23-1.36,1.74-1.35,1.24-3.08,1.91-4.9,1.91-.11,0-.22,0-.33,0-.29-.01-.57-.07-.85-.12-.24-.04-.47-.07-.7-.13-.03,0-.05-.02-.08-.03,0,.03-.01.07-.01.1,0,0,0,0,0,.01-.01.27.02.52.04.78,0,0,0,0,0,0,.62-.14,1.24-.22,1.9-.19,1.94.08,3.73.92,5.04,2.35.76.83,1.28,1.81,1.59,2.86.59-.26,1.16-.6,1.65-1.05,1.2-1.1,1.9-2.6,1.98-4.23.06-1.38-.36-2.65-1.09-3.71-.24.02-.47.07-.71.07Z"/><path class="cls-1" d="M114.05,173.55s.04-.03.05-.04c.18-.14.34-.29.5-.45.04-.04.07-.08.1-.12.2-.21.39-.42.55-.66.32-.45.56-.96.75-1.49.06-.18.14-.36.19-.55.05-.19.06-.39.08-.58,0,0,0,0,0,0,.03-.2.08-.39.09-.59,0-.13-.02-.25-.02-.38,0-.28,0-.56-.05-.84-.16-1.04-.61-2-1.28-2.84-.09-.11-.16-.23-.25-.33-.09-.1-.2-.17-.3-.27-.18-.17-.36-.35-.55-.5-.56-.42-1.19-.72-1.86-.93-.08,0-.15,0-.23,0,0,0,0,0,0,0-.2,0-.38-.06-.57-.08-.19-.02-.39-.04-.58-.08-.17-.03-.33-.07-.5-.12-1.5.02-2.92.58-4.04,1.6-1.2,1.1-1.9,2.6-1.98,4.23-.15,3.36,2.47,6.21,5.83,6.36,1.28.05,2.48-.29,3.49-.92.2-.12.37-.27.55-.41Z"/><path class="cls-1" d="M139.22,160.11c-.16.01-.31.04-.47.04-.11,0-.22,0-.33,0-.47-.02-.93-.09-1.38-.2.01.23.05.45.04.67-.08,1.94-.92,3.73-2.35,5.04-.56.51-1.19.9-1.86,1.21-.23.1-.45.2-.69.28-.22.07-.44.13-.66.19-.47.11-.95.18-1.44.2.14.29.29.58.47.85.15.23.31.45.49.66,0,0,0,0,0,0,.02.02.04.05.06.08.13.14.28.25.42.38.16.15.31.31.49.43,0,0,0,0,0,0,.41.3.87.53,1.34.72.41.16.83.27,1.27.35.23.04.47.09.71.1.04,0,.07,0,.11,0,1.6.02,3.1-.51,4.28-1.59,1.2-1.1,1.9-2.6,1.97-4.23.07-1.63-.49-3.19-1.6-4.39-.27-.29-.56-.56-.88-.79Z"/><path class="cls-1" d="M139.36,138.62s.06.01.09.01c.2.01.39.06.58.08.19.03.39.04.58.08.53.12,1.05.28,1.53.51.1-.23.18-.47.25-.71-.03-.24-.03-.48-.04-.73-.5.12-1.01.2-1.54.21-.05,0-.1.01-.15.01-.11,0-.21,0-.32,0-.04,0-.09-.02-.13-.02-.2-.01-.39-.06-.58-.09-2.39-.35-4.38-1.84-5.42-3.89-.09-.19-.2-.37-.27-.56-.09-.23-.16-.47-.23-.72-.11-.39-.2-.79-.24-1.2-.36.21-.7.45-1.01.74-.85.78-1.43,1.76-1.74,2.84,0,0,0,.02,0,.03-.06.21-.09.42-.12.63-.03.21-.08.42-.09.63,0,.03-.01.06-.01.1-.02.49.03.96.12,1.42.3,1.56,1.19,2.92,2.45,3.82,1.38-2.02,3.72-3.32,6.31-3.2Z"/><path class="cls-1" d="M138.16,107.39c-.07-.23-.17-.45-.28-.67-.26-.57-.59-1.1-1.02-1.58-.21-.23-.45-.43-.69-.62-.4-.21-.77-.45-1.12-.72-.75-.37-1.56-.59-2.42-.63-.09,0-.18,0-.28,0-.95,0-1.85.24-2.68.65-.26.13-.52.27-.76.44-.1.07-.2.15-.3.23-.12.1-.25.18-.37.28-.15.14-.27.3-.41.45-.2.34-.44.66-.71.96-.25.42-.44.85-.58,1.31-.08.28-.14.56-.19.86,0,.02,0,.04,0,.06-.02.15-.05.3-.06.45.03-.01.06-.03.09-.04.19-.08.37-.16.57-.22.82-.27,1.69-.41,2.6-.37,3.31.15,5.98,2.51,6.72,5.58,0,.03.02.06.02.09.18-.15.34-.31.5-.48.16-.17.34-.34.48-.53.16-.22.29-.46.42-.7.15-.27.28-.56.38-.86.21-.57.36-1.16.39-1.8.02-.4,0-.8-.06-1.19-.05-.32-.14-.64-.24-.95Z"/><path class="cls-1" d="M110.4,161.53c.17.05.34.1.52.14.19.04.39.06.59.08.13.01.25.05.38.05.08,0,.15-.01.22-.01.03,0,.06,0,.09,0,.65,0,1.29-.1,1.89-.3.21-.07.4-.16.6-.25.2-.09.41-.17.6-.29.35-.21.68-.45.99-.74.77-.7,1.31-1.59,1.63-2.55.06-.19.14-.38.18-.58.04-.19.06-.39.08-.59.02-.17.07-.34.07-.52.02-.5-.03-.97-.13-1.44-.04-.2-.1-.4-.16-.59s-.12-.39-.2-.57c-.4-.95-1.03-1.78-1.82-2.42-.18-.14-.37-.26-.56-.39-.19-.12-.36-.24-.56-.34-.73-.36-1.54-.58-2.4-.62-.04,0-.09,0-.13,0-.21,0-.42.02-.63.04-.2.02-.41.03-.6.06-2.75.51-4.87,2.82-5,5.72-.07,1.63.5,3.19,1.6,4.39.75.82,1.7,1.39,2.74,1.7Z"/><path class="cls-1" d="M115.85,83.35s.03.06.05.1c.09.17.18.35.25.53.4.97.61,2.01.56,3.09-.02.39-.09.76-.16,1.13.11.12.24.21.35.31.14.13.28.27.44.39.16.12.32.22.49.32.88.55,1.88.89,2.95.94,1.29.05,2.52-.3,3.58-.99-.12-.53-.19-1.08-.19-1.64,0-.1-.02-.2-.02-.31,0-.15.05-.28.06-.43,0-.06.02-.11.02-.17.02-.17.04-.35.08-.52,0-.02,0-.04,0-.06.04-.19.09-.38.14-.57.41-1.4,1.23-2.61,2.31-3.52-.82-2.24-2.93-3.88-5.46-4-.21,0-.4.03-.6.04-2.6.16-4.78,1.91-5.5,4.35.09.12.19.24.27.37.14.2.26.41.37.63Z"/><path class="cls-1" d="M129.06,166.34c.16.02.31.06.48.07.05,0,.09,0,.14,0,.76.01,1.5-.1,2.2-.35.24-.09.47-.21.7-.33.25-.13.49-.28.73-.44.21-.15.43-.29.63-.47,1.2-1.1,1.9-2.6,1.97-4.23.02-.35-.01-.69-.05-1.03-.29-.13-.56-.29-.84-.45-.05-.03-.11-.06-.16-.1-.12-.07-.24-.13-.36-.21-.11-.08-.21-.18-.31-.27-.06-.05-.12-.11-.17-.16-.01-.01-.03-.02-.04-.04-.1-.09-.2-.17-.3-.27-.09-.09-.2-.16-.28-.25-.02-.02-.03-.04-.04-.06-.19-.21-.33-.43-.49-.66-.55-.78-.94-1.64-1.15-2.55-.22-.07-.44-.14-.67-.18-.51.41-1.05.74-1.63,1-.2.09-.4.16-.61.23-.2.07-.4.12-.6.17-.55.13-1.1.22-1.67.22-.11,0-.22,0-.33,0-.19,0-.37-.06-.55-.08-1.01.95-1.67,2.25-1.85,3.71-.02.15-.06.3-.07.46,0,.2.02.39.03.59.05.94.3,1.85.76,2.66.17.31.38.6.61.88.07.08.12.18.19.26.85.92,1.94,1.54,3.13,1.82.2.05.41.06.62.09Z"/><path class="cls-1" d="M119.88,122.76c-.18.08-.35.17-.53.24-.18.07-.37.11-.56.17-.1.03-.2.07-.31.09-.19.05-.39.09-.59.12-.2.03-.41.05-.62.06-.17.01-.34.05-.51.05-.11,0-.21,0-.32,0-1.14-.05-2.19-.39-3.14-.9-.03.22-.08.43-.09.66-.07,1.62.49,3.17,1.58,4.37.38-.04.76-.08,1.15-.06.61.03,1.2.15,1.77.32.19.06.37.12.55.19.18.07.37.13.54.21.62.3,1.18.71,1.7,1.18.29-.06.57-.12.85-.22.21-.07.41-.18.61-.28.22-.1.43-.21.64-.34.29-.19.58-.39.84-.63.17-.16.31-.34.45-.51.15-.17.3-.34.43-.53.12-.17.22-.36.32-.54.35-.64.58-1.34.69-2.08.03-.19.07-.38.08-.58,0-.04,0-.09,0-.13,0-.21-.02-.42-.04-.62-.04-.56-.14-1.1-.32-1.61-.72-.51-1.34-1.15-1.83-1.89-.73,1.41-1.9,2.54-3.33,3.22Z"/><path class="cls-1" d="M142.58,140.92c-.16-.11-.33-.2-.5-.3-.17-.1-.33-.21-.5-.29-.4-.18-.83-.31-1.27-.4-.19-.04-.39-.06-.58-.08-.14-.02-.27-.05-.41-.06-.06,0-.12,0-.18,0-.03,0-.06,0-.09,0-2.05,0-3.89,1.03-4.99,2.61-.11.16-.2.34-.3.51-.1.17-.2.34-.28.52-.06.13-.1.28-.15.42-.07.2-.16.39-.21.59-.05.19-.06.4-.09.59-.02.14-.05.28-.06.43.35.69.6,1.43.71,2.22.88-.86,1.98-1.47,3.2-1.8.2-.05.4-.12.61-.16.07-.01.14-.02.21-.03.13-.02.28-.01.41-.02.13-.01.26-.02.4-.02.07,0,.14-.01.22-.01.11,0,.22-.02.33-.02,1.94.08,3.73.92,5.04,2.35.16.18.29.38.43.57.36-.74.57-1.55.61-2.39.07-1.63-.49-3.19-1.6-4.39-.29-.32-.62-.6-.97-.85Z"/><path class="cls-1" d="M160.23,100.12c.97-.42,2.04-.65,3.16-.6,1.94.08,3.73.92,5.04,2.35.12.14.21.29.33.44.08.1.16.21.24.32.08-.05.15-.12.23-.18.3-.21.57-.44.83-.71.14-.14.27-.28.39-.43.12-.15.23-.31.34-.48.58-.89.96-1.93,1.01-3.06.07-1.63-.5-3.19-1.6-4.39-1.1-1.2-2.6-1.9-4.23-1.97-.09,0-.18,0-.28,0-1.53,0-2.98.56-4.11,1.6-.06.05-.1.12-.16.18-.07.07-.13.15-.2.22-.13.14-.27.28-.39.43-.12.16-.21.33-.32.5-.53.87-.86,1.85-.91,2.9,0,.09.01.17.01.26,0,.94.22,1.82.6,2.62Z"/><path class="cls-1" d="M147.5,128.37s.08.03.12.04c.18.07.36.14.55.19.07.02.13.05.2.07.23.06.47.09.7.12.2.03.39.08.59.08.05,0,.1,0,.16,0,1.58.02,3.07-.52,4.23-1.59.42-.39.76-.83,1.05-1.31-.52-.26-.99-.59-1.43-.97-.15-.13-.3-.25-.43-.39s-.27-.28-.4-.43c0,0,0,0,0,0-.14-.16-.26-.33-.38-.51-.12-.17-.25-.33-.35-.51-.69-1.17-1.07-2.54-1.01-4,.03-.79.22-1.53.49-2.25-.45-.13-.91-.22-1.39-.24-.09,0-.18,0-.28,0-.26,0-.52.04-.78.07-.2.03-.39.05-.58.1-.19.04-.37.1-.56.16-.8.27-1.55.68-2.2,1.27-1.19,1.09-1.88,2.56-1.97,4.17.05.39.08.78.07,1.18,0,.03-.01.06-.01.09.03.23.11.45.17.67,0,.02.01.04.02.07.2.11.39.22.58.35.18.12.36.25.53.39.28.23.56.46.81.73.51.56.9,1.2,1.21,1.87.09.19.2.38.27.58Z"/><path class="cls-1" d="M155.58,136.63c-.04-.19-.09-.38-.14-.56-.26-.89-.69-1.73-1.34-2.44-1.1-1.2-2.6-1.9-4.23-1.97-.56-.02-1.1.06-1.63.18-.14.03-.29.07-.43.11-.02.12-.03.24-.05.35-.06.31-.15.6-.26.89-.64,1.84-1.97,3.33-3.69,4.17-.1.05-.2.12-.31.16-.02.42.01.83.08,1.24.19,1.16.71,2.24,1.52,3.13,1.1,1.2,2.6,1.9,4.23,1.97,1.64.06,3.19-.49,4.39-1.6,1.2-1.1,1.9-2.6,1.98-4.23.01-.27-.02-.53-.04-.79-.02-.2-.03-.4-.07-.6Z"/><path class="cls-1" d="M122.13,114.02c.03-.15.06-.3.1-.45-.26-.52-.56-1.02-.96-1.47-.16-.17-.34-.31-.52-.46-.03-.03-.06-.06-.1-.09-.04.18-.1.35-.16.53-.38,1.22-1.04,2.34-2.01,3.22-1.35,1.24-3.08,1.91-4.9,1.91-.11,0-.22,0-.33,0-.91-.04-1.76-.26-2.55-.6.05.86.28,1.66.65,2.39.1.19.2.39.32.57.13.19.27.38.42.56.17.2.35.39.55.57.16.14.3.3.47.42.16.12.33.21.5.31.85.52,1.82.86,2.89.91.01,0,.03,0,.04,0,.24,0,.46-.03.69-.04.23-.02.45-.04.67-.08.19-.04.37-.09.55-.15.19-.05.38-.1.55-.17.19-.07.36-.17.53-.26,1.35-.69,2.39-1.86,2.93-3.29.01-.04.03-.07.04-.11-.09-.22-.15-.45-.22-.68-.07-.23-.14-.46-.19-.71-.08-.44-.11-.89-.11-1.35,0-.1-.02-.2-.02-.3,0-.16.05-.3.07-.46.03-.24.05-.47.1-.71Z"/><path class="cls-1" d="M144.16,150.15c-.09-.18-.18-.37-.29-.54-.19-.29-.39-.58-.63-.84-.96-1.05-2.23-1.69-3.62-1.89-.2-.03-.4-.08-.61-.09-.06,0-.11.01-.17.01-.15,0-.29.02-.43.03-.1,0-.2,0-.3.02-.1.01-.21,0-.32.02-.23.04-.44.11-.65.17-1.28.36-2.41,1.1-3.21,2.13-.09.11-.16.23-.23.34-.01.09-.02.18-.04.26-.04.26-.07.53-.14.78-.18.68-.48,1.32-.85,1.92,0,.05-.02.09-.02.14-.02.35.01.69.06,1.03.03.24.09.48.15.72.07.28.15.56.27.83.27.65.64,1.27,1.13,1.8.03.04.07.06.11.1,0,0,0,0,.01.01.15.15.31.29.47.43.03.03.07.06.1.09.07.05.12.12.19.17.07.05.14.08.21.13.03.02.07.04.1.06.05.03.09.06.14.08.16.1.32.21.5.29.04.02.08.04.12.06.21.1.44.16.66.23.52.17,1.05.29,1.61.32,0,0,0,0,0,0,.35.01.7-.01,1.04-.06,1.25-.16,2.41-.67,3.35-1.54,1.2-1.1,1.9-2.6,1.98-4.23.04-.85-.11-1.67-.4-2.44-.07-.2-.18-.38-.27-.57Z"/><path class="cls-1" d="M126.41,190.19c-.05,0-.1.01-.15.01-.11,0-.21,0-.32,0-.04,0-.07-.01-.11-.02-2.4-.14-4.46-1.44-5.67-3.33-.07-.11-.14-.23-.2-.34-.19.23-.35.46-.5.71-.52.86-.85,1.84-.89,2.87-.15,3.36,2.47,6.21,5.83,6.36,1.62.06,3.19-.5,4.39-1.6,1.2-1.1,1.9-2.6,1.98-4.23.03-.64-.07-1.25-.23-1.84-1.17.85-2.58,1.37-4.11,1.4Z"/><path class="cls-1" d="M94.86,116.34c.24-.29.45-.61.64-.95.38-.69.62-1.46.7-2.28.01-.12.04-.22.05-.34.01-.27-.02-.54-.05-.8-.12-1.31-.64-2.52-1.46-3.46-1.79-.09-3.44-.84-4.71-2.09-1.48.03-2.89.58-4,1.59-1.2,1.1-1.9,2.6-1.98,4.23-.15,3.36,2.47,6.21,5.83,6.36,1.99.07,3.8-.82,4.98-2.26Z"/><path class="cls-1" d="M138.2,90.97c.54-.1,1.1-.16,1.67-.13.45.02.88.09,1.31.19.24.06.47.14.7.22.01,0,.02,0,.03.01.22.08.45.14.67.23.01,0,.03,0,.04.01.14.06.26.16.39.23.13.07.26.15.38.23.2.12.4.24.58.39.22.17.41.36.61.55.11.1.23.18.33.29.7.77,1.21,1.66,1.53,2.62.07.2.11.4.15.6.05.21.12.41.15.63h0c.01.09,0,.18.01.26.06-.03.12-.06.18-.09.47-.26.9-.58,1.29-.96.06-.06.11-.13.17-.19.23-.24.44-.5.63-.78.15-.23.3-.46.42-.7.36-.73.58-1.54.61-2.4.02-.49-.03-.97-.12-1.43-.04-.19-.09-.38-.15-.57-.06-.19-.11-.37-.18-.55-.41-1.01-1.08-1.9-1.94-2.56-.18-.14-.38-.25-.57-.37-.18-.11-.35-.23-.54-.32-.04-.02-.08-.03-.12-.04-.68-.3-1.42-.5-2.21-.53-.09,0-.18,0-.28,0-.79,0-1.56.16-2.28.45-.66.27-1.29.65-1.83,1.15-.03.03-.05.06-.08.09-.15.14-.27.29-.4.44-.13.15-.26.29-.38.45-.2.28-.37.56-.51.87-.09.37-.23.72-.37,1.06-.03.07-.05.15-.08.22-.03.11-.03.23-.05.34,0,0,0,0,0,0,0,.04-.01.08-.02.13.03,0,.06-.02.1-.02.05-.01.1-.03.15-.04Z"/><path class="cls-1" d="M93.36,94.22c.19-.05.38-.12.58-.15.19-.03.39-.02.59-.04.3-.02.59-.06.89-.04,1.94.08,3.73.92,5.04,2.35.42.46.75.98,1.04,1.52.61-.32,1.15-.74,1.61-1.23.05-.05.1-.11.15-.17.05-.14.09-.29.15-.43.09-.24.19-.47.31-.7.23-.44.51-.86.83-1.25.12-.43.2-.87.22-1.33,0-.17-.02-.33-.03-.5-.52-.45-.99-.96-1.37-1.53-.14-.22-.26-.44-.38-.67-.12-.23-.24-.45-.34-.69-.22-.58-.35-1.19-.42-1.82-.96-.69-2.09-1.1-3.3-1.15-.01,0-.02,0-.04,0-.39-.01-.78,0-1.17.07-.43.07-.85.19-1.25.34-.7.27-1.36.66-1.93,1.19-1.2,1.1-1.9,2.6-1.98,4.23-.03.74.09,1.45.3,2.12.15-.05.31-.08.47-.12Z"/><path class="cls-1" d="M102.6,133.82c1.65.07,3.19-.5,4.39-1.6.12-.11.22-.25.33-.37.13-.14.27-.28.39-.43.12-.16.22-.33.32-.49.15-.24.29-.47.41-.73.07-.16.11-.32.17-.48.01-.03.02-.06.03-.09.06-.2.13-.39.18-.6,0-.03,0-.05.01-.08.05-.27.1-.54.12-.81,0-.05.02-.1.02-.15.09-2-.82-3.81-2.27-4.99-.15-.12-.31-.23-.47-.34-.12-.08-.24-.15-.37-.22-.04-.03-.09-.05-.13-.08-.17-.09-.34-.17-.52-.25-.25-.1-.5-.21-.77-.28-.42-.11-.85-.18-1.29-.2-.09,0-.18,0-.27,0-.16,0-.31.03-.46.05-.2.02-.4.02-.6.06-.19.03-.38.09-.57.14-.24.07-.49.13-.72.23-.25.1-.47.23-.7.37-.21.12-.41.26-.6.41-.05.03-.09.07-.13.11.29.23.57.47.83.74.53.58.93,1.25,1.25,1.95.08.18.18.36.25.55.06.18.1.38.14.57.18.7.3,1.42.26,2.17-.07,1.61-.69,3.07-1.64,4.23.75.37,1.57.59,2.43.63Z"/><path class="cls-1" d="M115.67,104.24c-.2-.07-.39-.16-.59-.21-1.35,1.24-3.08,1.91-4.9,1.91-.11,0-.22,0-.33,0-.08,0-.16-.03-.25-.04-.17-.01-.34-.05-.5-.07-.03.03-.06.07-.09.1-.1.12-.22.23-.32.35-.06.08-.11.16-.16.24-.25.37-.46.77-.62,1.19-.21.54-.35,1.11-.4,1.7,0,.09-.03.17-.04.26-.02.36.02.7.06,1.05.03.26.1.52.16.77.02.07.03.14.05.2.05.15.08.31.14.45.26.67.64,1.29,1.11,1.82.21.24.44.45.69.65.17.14.35.27.53.4.17.12.35.23.54.32.77.4,1.62.66,2.54.7,1.62.06,3.19-.5,4.39-1.6.03-.03.06-.07.09-.1.42-.41.77-.87,1.05-1.36.27-.46.49-.95.63-1.47.06-.22.09-.45.12-.68.03-.21.08-.41.09-.63,0,0,0,0,0,0,0-.22-.02-.43-.04-.64-.02-.29-.04-.57-.1-.84-.06-.27-.12-.54-.21-.8-.12-.35-.28-.68-.46-1-.39-.69-.91-1.29-1.54-1.77-.29-.23-.6-.43-.93-.6-.23-.12-.46-.21-.7-.3Z"/><path class="cls-1" d="M136.76,92.7c-.47.25-.93.53-1.33.9-.25.23-.47.49-.67.75-.78.99-1.25,2.19-1.3,3.48-.02.46.02.91.1,1.35.04.23.11.46.18.68.07.23.15.46.25.68.16.36.35.7.57,1.02.2.29.41.56.66.8.17.17.35.33.54.49.39.21.77.45,1.12.72.26.13.54.22.82.31.32.1.65.17.99.23.2.03.4.08.61.09.41.01.81-.01,1.19-.08.82-.13,1.59-.42,2.27-.84.22-.13.41-.3.61-.46.2-.16.38-.32.56-.51.19-.2.38-.39.55-.61.58-.78.94-1.7,1.1-2.71.03-.17.06-.33.07-.5,0-.05.02-.09.02-.13,0,0,0,0,0,0,0-.07-.01-.13-.01-.2,0-.14-.01-.27-.02-.4,0-.06,0-.11,0-.17,0-.09,0-.17-.01-.26-.03-.24-.09-.47-.15-.7,0-.04-.02-.08-.03-.12-.22-.83-.61-1.59-1.17-2.27-.07-.08-.12-.18-.2-.26-.18-.2-.4-.37-.6-.54-.18-.15-.37-.29-.56-.42-.02-.01-.04-.02-.06-.03-.2-.13-.39-.26-.61-.36-.2-.1-.41-.17-.62-.24-.56-.2-1.15-.35-1.77-.38,0,0-.01,0-.02,0-.02,0-.04,0-.06,0-.07,0-.14,0-.22,0-.22,0-.44.04-.66.06-.33.04-.66.1-.98.19-.19.05-.39.09-.57.17-.2.08-.38.19-.57.28Z"/><path class="cls-1" d="M170.3,107.32c-.14,1.86-.94,3.57-2.32,4.83-1.26,1.16-2.86,1.79-4.55,1.87-.1,0-.2.03-.3.03.06.06.13.11.19.17,1.14,1.08,1.96,2.5,2.22,4.1.37.09.76.15,1.15.16,1.64.06,3.19-.49,4.39-1.6,1.2-1.1,1.9-2.6,1.98-4.23.1-2.22-1.02-4.2-2.75-5.34Z"/><path class="cls-1" d="M98.78,133c.14-.14.26-.29.39-.43.85-1,1.41-2.26,1.47-3.66.03-.57-.06-1.13-.19-1.68-.05-.19-.08-.39-.15-.58-.06-.19-.15-.36-.24-.54-.26-.57-.59-1.12-1.03-1.6-.25-.27-.52-.5-.8-.72-.16-.12-.33-.22-.5-.32-.17-.1-.33-.21-.51-.3-.75-.37-1.57-.59-2.43-.63-.09,0-.18,0-.28,0-1.53,0-2.98.56-4.11,1.6-1.2,1.1-1.9,2.6-1.98,4.23-.15,3.36,2.47,6.21,5.83,6.36.69.03,1.35-.09,1.98-.27.19-.06.37-.11.55-.18.18-.07.36-.17.53-.26.35-.18.68-.4.99-.64.15-.12.31-.24.45-.38Z"/><path class="cls-1" d="M132.24,181.81c-.04-.2-.09-.39-.15-.58-.26-.88-.69-1.71-1.33-2.41-.29-.32-.62-.6-.97-.85-.17-.12-.35-.21-.52-.31-.17-.1-.34-.21-.53-.29-.42-.19-.86-.31-1.32-.4-.21-.04-.41-.07-.63-.09-.09,0-.18-.03-.27-.04-.09,0-.18,0-.28,0-.05,0-.1.01-.15.01-.75.02-1.49.17-2.17.45-.18.08-.36.17-.53.27-.02.01-.05.02-.07.04-.15.08-.3.17-.45.27-.02.01-.03.03-.05.04-.16.11-.32.23-.47.36-.07.06-.15.1-.22.17-.26.24-.49.51-.71.79-.15.19-.27.4-.39.61-.11.18-.23.36-.32.55-.33.71-.52,1.48-.55,2.28-.03.64.07,1.25.23,1.84,0,.01,0,.03.01.04.05.19.09.38.16.56,0,.02.02.03.02.05.07.17.15.32.23.48,0,.02.02.04.03.06.09.17.17.35.28.52.03.05.07.09.1.13l1.04,1.17c1.01.88,2.28,1.45,3.72,1.52.05,0,.09,0,.14,0,.21,0,.41-.02.62-.03,1.26-.1,2.42-.57,3.35-1.33.16-.13.31-.26.45-.4.15-.15.29-.3.42-.46.81-.99,1.33-2.22,1.39-3.59.01-.27-.02-.53-.04-.79-.02-.2-.03-.41-.07-.61Z"/><path class="cls-1" d="M90.61,105.37c.19.21.42.39.63.57.87.72,1.91,1.17,3.04,1.32.19.03.37.07.56.08.12,0,.24-.02.37-.02.01,0,.03,0,.04,0,.2,0,.39-.01.58-.03.2-.02.39-.06.58-.1.01,0,.02,0,.03,0,.19-.04.38-.08.57-.14.19-.06.36-.14.54-.22.61-.26,1.18-.61,1.69-1.07,1.2-1.1,1.9-2.6,1.97-4.23,0-.05,0-.09,0-.14,0-.2-.02-.4-.03-.6-.02-.2-.02-.4-.06-.59-.05-.28-.12-.55-.21-.81-.06-.18-.13-.36-.21-.54-.08-.18-.16-.36-.26-.54-.23-.41-.49-.81-.82-1.17-1.1-1.2-2.6-1.9-4.23-1.97-.09,0-.18,0-.28,0-.2,0-.39.04-.59.05-.2.02-.39.03-.59.06-.19.04-.38.1-.56.16,0,0,0,0,0,0-.19.06-.38.11-.56.18-.18.07-.35.17-.52.26-.46.24-.9.52-1.29.88-1.2,1.1-1.9,2.6-1.97,4.23-.07,1.58.47,3.08,1.5,4.27.03.04.06.08.09.12Z"/><path class="cls-1" d="M159.73,111.87c.18.12.37.23.56.33.19.1.39.18.6.26.05.02.1.04.15.05.18.07.36.15.55.19.19.05.39.06.58.09.15.02.29.05.44.06.07,0,.13.02.19.03.14,0,.28-.02.42-.02.21,0,.42,0,.63-.03,1.24-.16,2.4-.68,3.34-1.54,1.2-1.1,1.9-2.6,1.97-4.23,0-.11-.02-.22-.02-.33,0-.21-.01-.42-.03-.63-.03-.22-.07-.44-.12-.66-.1-.43-.24-.85-.44-1.25-.09-.18-.15-.37-.26-.54-.07-.11-.15-.2-.23-.31-.04-.06-.08-.11-.13-.17-.13-.17-.24-.35-.38-.51-.06-.07-.14-.12-.21-.19-.35-.35-.73-.64-1.14-.89-.86-.52-1.84-.85-2.88-.9-.09,0-.18,0-.27,0-.79,0-1.54.16-2.24.43-.19.07-.36.17-.53.27-.17.09-.36.17-.52.27-.83.54-1.51,1.28-2,2.15-.1.18-.21.36-.29.55-.08.18-.13.37-.2.56-.17.51-.29,1.05-.32,1.61-.07,1.63.49,3.19,1.6,4.39.34.38.74.68,1.16.96Z"/><path class="cls-1" d="M131.59,145.37c-.11-.17-.24-.33-.37-.48-.13-.16-.25-.31-.39-.45-.99-1.01-2.31-1.67-3.81-1.8-.09,0-.18-.04-.27-.04-1.03-.04-1.99.2-2.86.61-.18.08-.36.16-.53.26-.05.03-.09.05-.13.08-.12.08-.23.17-.34.26-1.44,1.06-2.42,2.7-2.5,4.62-.06,1.36.35,2.66,1.12,3.75.11.16.22.32.35.47.05.05.08.12.13.17.09.09.19.17.28.25.84.81,1.88,1.36,3.01,1.59.27.05.54.1.81.12.04,0,.08.02.12.02.4.01.79-.01,1.17-.07.01,0,.03,0,.04,0,.2-.03.39-.1.58-.15.2-.05.41-.09.61-.16.07-.03.14-.07.21-.1.42-.17.82-.4,1.19-.67.2-.14.41-.27.59-.44.02-.02.04-.05.06-.07.33-.32.62-.67.87-1.04.59-.88.95-1.89,1.02-2.96,0,0,0,0,0-.01,0-.05.02-.1.02-.15.05-1.18-.25-2.3-.8-3.26-.06-.11-.13-.22-.2-.33Z"/><path class="cls-1" d="M164.39,118.54c-.04-.25-.12-.48-.19-.72-.28-.98-.79-1.87-1.49-2.58-.14-.14-.29-.27-.44-.4-.15-.13-.3-.25-.46-.36-.11-.08-.23-.14-.35-.21-.12-.07-.23-.15-.35-.21-.05-.02-.09-.06-.13-.08-.17-.08-.36-.13-.54-.19,0,0,0,0-.01,0-.21-.08-.42-.16-.64-.22-.37-.09-.76-.15-1.15-.17-.09,0-.18,0-.28,0-1.53,0-2.98.56-4.11,1.6-.33.3-.61.64-.87,1-.07.1-.12.21-.18.31-.04.06-.08.13-.11.19-.06.1-.13.2-.18.31-.03.07-.07.14-.1.2-.05.11-.08.23-.12.34-.23.6-.38,1.22-.41,1.88-.06,1.38.36,2.66,1.09,3.71.1.15.21.29.32.42.04.04.07.09.1.14.09.11.19.2.29.3.09.09.19.17.28.25.05.05.1.09.15.14.35.29.71.54,1.12.74.17.09.35.15.53.22.18.07.36.14.55.2.44.13.9.22,1.38.24,0,0,0,0,0,0,.28.01.55-.02.82-.05.23-.02.46-.05.68-.1,1.07-.22,2.07-.7,2.89-1.45,1.2-1.1,1.9-2.6,1.98-4.23,0-.2-.02-.39-.03-.59-.01-.21,0-.43-.04-.63Z"/><path class="cls-1" d="M103.46,87.83c.01.08.04.16.06.24.05.24.11.48.19.71.08.22.19.43.29.64.31.63.71,1.19,1.2,1.68.22.21.44.42.69.6.29.21.6.4.92.55,1.12-.59,2.37-.91,3.68-.84.77.03,1.51.22,2.22.48.78-.49,1.42-1.16,1.91-1.95.12-.2.26-.39.36-.6.11-.22.18-.47.25-.7.02-.06.05-.12.06-.18.07-.24.12-.5.16-.75.04-.23.09-.45.1-.69,0-.13-.02-.26-.02-.4-.02-.82-.19-1.6-.52-2.33-.01-.03-.03-.06-.04-.09-.05-.11-.1-.23-.16-.34-.11-.2-.24-.4-.37-.59,0-.01-.02-.02-.02-.03-.15-.21-.29-.42-.46-.61,0,0,0,0,0,0,0,0,0,0,0,0-.66-.71-1.46-1.22-2.34-1.55-.6-.22-1.22-.38-1.88-.41-.09,0-.18,0-.28,0-1.53,0-2.98.56-4.11,1.6-.28.25-.52.53-.74.83-.17.22-.3.46-.44.7-.13.22-.24.45-.34.69-.26.64-.43,1.31-.46,2.02,0,.17.02.33.03.5.01.29.02.57.07.85Z"/><path class="cls-1" d="M125.43,86.42c-.03.14-.04.27-.06.41,0,.06-.02.12-.03.18,0,.09-.03.18-.04.27,0,.05,0,.09,0,.14,0,.19.02.37.03.56,0,.12,0,.24.02.36.03.24.09.46.15.69.05.2.09.41.16.61.31.84.81,1.58,1.43,2.21.38.38.81.7,1.28.97.18.1.36.21.55.29,0,0,.01,0,.02,0,.18.08.37.14.56.2,0,0,0,0,0,0,.19.06.37.12.56.17.34.08.7.14,1.06.15.2,0,.39-.02.59-.03.74-.04,1.45-.21,2.12-.5.61-.26,1.18-.6,1.69-1.07.33-.3.61-.63.86-.98.11-.16.2-.34.3-.51.07-.12.15-.23.21-.36.03-.06.05-.11.08-.17.06-.13.1-.28.15-.41.08-.23.17-.46.23-.7.08-.36.14-.72.16-1.1,0-.04,0-.08,0-.12,0-.21-.02-.42-.04-.63-.02-.22-.03-.43-.07-.64-.11-.56-.3-1.09-.55-1.59-.67-1.34-1.82-2.39-3.24-2.95-.2-.08-.39-.16-.6-.21-.43-.12-.87-.2-1.33-.22-1.02-.04-2.01.2-2.91.63-.23.11-.45.22-.67.36-.17.11-.34.24-.5.38-.1.08-.21.14-.31.23-.08.07-.13.16-.21.23-.72.73-1.23,1.6-1.51,2.57-.05.19-.1.38-.13.57Z"/><path class="cls-1" d="M136.28,117.25c-.03.11-.08.22-.12.33-.16.53-.38,1.03-.65,1.51-.16.28-.32.55-.51.81-.26.34-.55.67-.87.97-.47.43-.99.76-1.53,1.05-.22.12-.44.25-.68.34s-.46.14-.7.21c-.15.04-.29.09-.44.13-.06.01-.11.04-.16.05-.02.14-.05.27-.06.41,0,.03,0,.06,0,.09,0,.21.02.41.03.62,0,0,0,0,0,.01.02.28.06.56.12.84.05.23.1.46.17.68.27.79.69,1.53,1.27,2.16.46.51,1.01.9,1.6,1.22.14-.46.33-.89.56-1.31.11-.2.22-.41.36-.6.12-.18.26-.34.4-.51.22-.26.43-.53.68-.76.56-.51,1.19-.89,1.86-1.21.19-.09.37-.2.56-.27.26-.09.53-.14.79-.2.65-.16,1.32-.25,2.01-.22.6.03,1.17.15,1.73.31,0-.07.03-.14.03-.21,0-.03.01-.06.01-.09.02-.4,0-.79-.07-1.18-.43-2.83-2.8-5.06-5.76-5.19-.22,0-.43.02-.64.04Z"/><path class="cls-1" d="M115.6,95.94c-.11-.21-.21-.41-.34-.61-.13-.19-.27-.38-.42-.56-.06-.07-.1-.15-.17-.22-.54-.59-1.17-1.05-1.87-1.38-.24-.12-.5-.19-.75-.28-.37-.12-.75-.2-1.15-.25-.16-.02-.31-.06-.47-.07-.09,0-.18,0-.28,0-.51,0-1.01.09-1.49.21-.37.09-.73.22-1.07.38-.24.11-.48.22-.7.37-.3.19-.58.4-.85.65-.17.16-.31.34-.47.52-.47.54-.84,1.15-1.09,1.82-.07.18-.14.37-.2.56,0,.03-.03.06-.03.1-.06.22-.08.45-.11.68-.03.19-.07.37-.08.56-.03.65.07,1.27.24,1.88.06.24.13.47.23.7.1.25.22.5.36.74.22.38.47.74.78,1.07.59.65,1.31,1.14,2.1,1.47.14.06.29.1.43.15.12.04.23.09.35.12.04.01.07.03.11.04.04,0,.07.02.11.03.16.04.33.05.49.07.04,0,.09.01.13.02.02,0,.05,0,.07.01.15.02.29.06.44.06.16,0,.32-.02.48-.03,1.07-.04,2.1-.33,3-.88.26-.16.5-.35.74-.56.06-.05.12-.08.17-.13.13-.12.23-.26.34-.38.27-.29.51-.6.71-.93,0,0,.01-.02.02-.03.11-.18.23-.35.32-.54.09-.18.14-.37.21-.56.2-.57.35-1.16.38-1.79,0-.09-.01-.18-.01-.27,0-.96-.23-1.88-.65-2.73Z"/><path class="cls-1" d="M142.64,136.59c.15-.05.29-.12.43-.18.05-.02.09-.04.13-.07.18-.08.37-.16.54-.26,0,0,.02,0,.03-.01,1.32-.79,2.31-2.06,2.75-3.58.04-.13.07-.27.1-.4.02-.1.03-.21.04-.31.03-.22.08-.43.1-.66,0,0,0-.01,0-.02,0,0,0-.01,0-.02.01-.25-.02-.5-.04-.75-.03-.4-.1-.79-.21-1.16-.08-.3-.19-.59-.32-.87-.26-.57-.59-1.11-1.02-1.59-.36-.39-.76-.7-1.19-.98-.03-.02-.07-.04-.11-.06-.1-.06-.2-.12-.3-.18-.15-.08-.31-.17-.47-.24-.01,0-.03,0-.04-.01,0,0,0,0-.01,0-.18-.08-.36-.13-.55-.19-.5-.16-1.02-.27-1.56-.3-.09,0-.18,0-.28,0-.32,0-.63.04-.94.09-.32.05-.62.13-.92.23-.82.27-1.6.69-2.25,1.29-.38.35-.69.75-.97,1.18-.15.23-.3.46-.42.7-.14.29-.24.59-.33.9-.05.17-.09.35-.13.53,0,.01,0,.03,0,.04-.01.06-.02.13-.03.19-.02.13-.04.26-.06.4,0,.08-.03.16-.03.24,0,.02,0,.04,0,.06,0,.05,0,.09,0,.13,0,.14.02.27.02.4.02.36.06.71.13,1.05.06.28.13.57.23.84.27.72.67,1.38,1.2,1.97,1.05,1.14,2.46,1.82,4,1.94.08,0,.15.03.23.03.2,0,.39-.02.59-.03.32-.02.64-.05.94-.12.18-.04.35-.08.52-.14.06-.02.13-.03.19-.05Z"/><path class="cls-1" d="M109.55,134.89c0,.2.01.39.03.59.02.18.04.36.08.54,0,.02.01.04.01.06.22,1.06.7,2.06,1.45,2.88.94,1.02,2.17,1.65,3.51,1.87.12.02.24.04.36.05.12.01.24.05.36.05.08,0,.15-.01.22-.01.18,0,.35-.02.52-.03.02,0,.04,0,.06,0,.1,0,.21,0,.32-.02.2-.03.38-.08.57-.13.09-.02.18-.05.27-.07.1-.03.2-.04.29-.08.03,0,.05-.01.08-.02.19-.07.36-.16.54-.25.15-.07.31-.14.46-.22.03-.01.05-.02.08-.04,1.7-1.02,2.87-2.83,2.96-4.95.07-1.48-.42-2.88-1.32-4.03-.09-.12-.17-.24-.27-.36,0,0,0,0,0,0-.04-.04-.08-.07-.12-.1-.14-.14-.29-.27-.44-.39-.02-.01-.03-.03-.05-.04-.28-.23-.57-.43-.88-.61-.09-.05-.18-.11-.27-.16-.17-.09-.35-.16-.53-.23-.18-.07-.37-.14-.56-.2-.32-.09-.66-.15-1-.18-.13-.01-.26-.05-.39-.06-.09,0-.18,0-.28,0-.14,0-.28.03-.43.04-.26.02-.52.03-.77.08-1.08.22-2.08.72-2.91,1.48-.14.13-.25.28-.38.42-.13.14-.28.28-.39.44-.11.14-.19.3-.28.45,0,.02-.02.03-.03.05-.08.13-.16.25-.23.38-.09.17-.16.35-.23.54-.01.04-.03.08-.04.11-.05.14-.11.29-.15.43-.13.46-.22.92-.25,1.41,0,.08.01.17.01.25,0,.03,0,.05,0,.08Z"/><path class="cls-1" d="M130.91,121.33c.21-.06.42-.13.63-.21.22-.09.43-.19.63-.3.2-.11.39-.24.58-.38.2-.14.41-.28.6-.45.76-.7,1.3-1.57,1.63-2.53.02-.06.04-.12.06-.18.05-.16.1-.31.14-.48.02-.09.02-.18.04-.28.02-.12.04-.23.05-.35.01-.1.04-.2.04-.3,0-.04.02-.08.02-.13,0-.08-.01-.16-.01-.24,0-.1-.01-.19-.02-.29,0-.1,0-.2-.02-.3-.01-.12,0-.23-.02-.35-.01-.09-.04-.17-.05-.26-.53-2.71-2.84-4.81-5.71-4.94-.84-.03-1.67.11-2.44.4-.18.07-.36.17-.54.25-.06.03-.12.05-.18.09-.12.06-.23.12-.35.19-.07.04-.12.1-.19.14-.17.12-.34.24-.5.37-.06.05-.14.09-.2.15-.75.69-1.28,1.54-1.6,2.47v.04c-.09.21-.17.41-.21.63-.03.15-.04.31-.07.47,0,.06-.02.13-.03.19-.02.15-.06.29-.06.44-.03.64.07,1.26.23,1.85.05.17.07.34.13.51.07.19.17.37.26.56.49,1.01,1.24,1.86,2.19,2.47.88.57,1.9.93,3.01.98.22,0,.43-.02.64-.04.21-.01.42-.02.63-.05.23-.04.45-.11.68-.17Z"/></g></svg>